<?xml version="1.0" encoding="UTF-8"?>
<svg xmlns="http://www.w3.org/2000/svg" xmlns:xlink="http://www.w3.org/1999/xlink" width="100px" height="100px" viewBox="0 0 150 150" version="1.1">
<g id="surface1">
<path style=" stroke:none;fill-rule:nonzero;fill:rgb(14.117647%,54.901961%,74.509804%);fill-opacity:1;" d="M 90.398438 98.320312 L 21.707031 98.320312 C 14.929688 98.320312 9.421875 92.8125 9.421875 86.027344 L 9.421875 41.0625 C 9.421875 34.277344 14.929688 28.769531 21.707031 28.769531 L 90.398438 28.769531 C 97.175781 28.769531 102.683594 34.277344 102.683594 41.0625 L 102.683594 86.015625 C 102.683594 92.8125 97.195312 98.320312 90.398438 98.320312 Z M 90.398438 98.320312 "/>
<path style=" stroke:none;fill-rule:nonzero;fill:rgb(9.411765%,20%,31.764706%);fill-opacity:1;" d="M 9.421875 44.285156 L 102.703125 44.285156 L 102.703125 58.359375 L 9.421875 58.359375 Z M 9.421875 44.285156 "/>
<path style=" stroke:none;fill-rule:nonzero;fill:rgb(98.431373%,98.039216%,93.333333%);fill-opacity:1;" d="M 44.53125 77.902344 L 18.796875 77.902344 C 17.019531 77.902344 15.574219 76.453125 15.574219 74.675781 C 15.574219 72.902344 17.019531 71.457031 18.796875 71.457031 L 44.53125 71.457031 C 46.300781 71.457031 47.753906 72.902344 47.753906 74.675781 C 47.753906 76.453125 46.300781 77.902344 44.53125 77.902344 Z M 64.074219 88.066406 L 18.796875 88.066406 C 17.019531 88.066406 15.574219 86.613281 15.574219 84.84375 C 15.574219 83.074219 17.019531 81.621094 18.796875 81.621094 L 64.074219 81.621094 C 65.847656 81.621094 67.292969 83.074219 67.292969 84.84375 C 67.292969 86.613281 65.847656 88.066406 64.074219 88.066406 Z M 64.074219 88.066406 "/>
<path style=" stroke:none;fill-rule:nonzero;fill:rgb(96.078431%,85.882353%,43.529412%);fill-opacity:1;" d="M 128.292969 121.230469 L 59.601562 121.230469 C 52.824219 121.230469 47.316406 115.722656 47.316406 108.9375 L 47.316406 63.972656 C 47.316406 57.1875 52.824219 51.679688 59.601562 51.679688 L 128.292969 51.679688 C 135.070312 51.679688 140.578125 57.1875 140.578125 63.972656 L 140.578125 108.925781 C 140.578125 115.722656 135.089844 121.230469 128.292969 121.230469 Z M 128.292969 121.230469 "/>
<path style=" stroke:none;fill-rule:nonzero;fill:rgb(68.235294%,72.156863%,76.862745%);fill-opacity:1;" d="M 115.476562 88.945312 L 56.691406 88.945312 C 54.914062 88.945312 53.464844 87.492188 53.464844 85.722656 C 53.464844 83.953125 54.914062 82.5 56.691406 82.5 L 115.476562 82.5 C 117.246094 82.5 118.699219 83.953125 118.699219 85.722656 C 118.699219 87.492188 117.246094 88.945312 115.476562 88.945312 Z M 115.476562 88.945312 "/>
<path style=" stroke:none;fill-rule:nonzero;fill:rgb(98.431373%,98.039216%,93.333333%);fill-opacity:1;" d="M 82.429688 100.808594 L 56.691406 100.808594 C 54.914062 100.808594 53.464844 99.363281 53.464844 97.589844 C 53.464844 95.8125 54.914062 94.363281 56.691406 94.363281 L 82.441406 94.363281 C 84.210938 94.363281 85.664062 95.8125 85.664062 97.589844 C 85.652344 99.363281 84.199219 100.808594 82.429688 100.808594 Z M 101.964844 110.976562 L 56.691406 110.976562 C 54.914062 110.976562 53.464844 109.523438 53.464844 107.753906 C 53.464844 105.984375 54.914062 104.53125 56.691406 104.53125 L 101.964844 104.53125 C 103.738281 104.53125 105.1875 105.984375 105.1875 107.753906 C 105.1875 109.523438 103.738281 110.976562 101.964844 110.976562 Z M 101.964844 110.976562 "/>
<path style=" stroke:none;fill-rule:nonzero;fill:rgb(95.294118%,76.078431%,38.431373%);fill-opacity:1;" d="M 74.765625 76.21875 L 58.855469 76.21875 C 55.886719 76.21875 53.464844 73.800781 53.464844 70.828125 L 53.464844 63.386719 C 53.464844 60.410156 55.886719 57.996094 58.855469 57.996094 L 74.765625 57.996094 C 77.742188 57.996094 80.15625 60.410156 80.15625 63.386719 L 80.15625 70.828125 C 80.15625 73.800781 77.742188 76.21875 74.765625 76.21875 Z M 74.765625 76.21875 "/>
<path style=" stroke:none;fill-rule:nonzero;fill:rgb(96.862745%,62.745098%,30.196078%);fill-opacity:1;" d="M 80.15625 64.171875 L 75.128906 64.171875 L 75.128906 57.996094 L 70.167969 57.996094 L 70.167969 76.21875 L 75.128906 76.21875 L 75.128906 69.230469 L 80.15625 69.230469 Z M 58.972656 57.996094 L 58.972656 64.171875 L 53.464844 64.171875 L 53.464844 69.230469 L 58.972656 69.230469 L 58.972656 76.21875 L 63.9375 76.21875 L 63.9375 57.996094 Z M 58.972656 57.996094 "/>
<path style=" stroke:none;fill-rule:nonzero;fill:rgb(96.862745%,97.647059%,86.666667%);fill-opacity:1;" d="M 140.578125 84.636719 L 140.578125 70.898438 C 128.777344 70.851562 118.875 62.636719 116.25 51.621094 L 102.257812 51.621094 C 105.070312 70.253906 121.183594 84.597656 140.578125 84.636719 Z M 140.578125 84.636719 "/>
</g>
</svg>
