<?xml version="1.0" encoding="UTF-8"?>
<svg xmlns="http://www.w3.org/2000/svg" xmlns:xlink="http://www.w3.org/1999/xlink" width="874px" height="589px" viewBox="0 0 873 589" version="1.1">
<defs>
<filter id="alpha" filterUnits="objectBoundingBox" x="0%" y="0%" width="100%" height="100%">
  <feColorMatrix type="matrix" in="SourceGraphic" values="0 0 0 0 1 0 0 0 0 1 0 0 0 0 1 0 0 0 1 0"/>
</filter>
<mask id="mask0">
  <g filter="url(#alpha)">
<rect x="0" y="0" width="873" height="589" style="fill:rgb(0%,0%,0%);fill-opacity:0.301961;stroke:none;"/>
  </g>
</mask>
<clipPath id="clip1">
  <rect x="0" y="0" width="873" height="589"/>
</clipPath>
<g id="surface5" clip-path="url(#clip1)">
<path style=" stroke:none;fill-rule:nonzero;fill:rgb(42.352941%,38.823529%,100%);fill-opacity:1;" d="M 572.777344 104.882812 C 572.492188 104.179688 571.96875 103.601562 571.300781 103.246094 C 570.886719 103.003906 570.4375 102.820312 569.96875 102.703125 C 570.285156 102.550781 570.574219 102.351562 570.824219 102.105469 C 571.199219 101.757812 571.480469 101.324219 571.640625 100.839844 C 571.792969 100.34375 571.855469 99.824219 571.824219 99.308594 C 571.824219 98.445312 571.582031 97.605469 571.132812 96.871094 C 570.632812 96.203125 569.945312 95.695312 569.160156 95.40625 C 568.398438 95.109375 567.59375 94.945312 566.773438 94.921875 L 566.773438 91.449219 L 564.675781 92.808594 L 564.675781 94.925781 L 562.996094 94.925781 L 562.996094 92.699219 L 560.847656 91.449219 L 560.847656 94.925781 L 556.277344 94.925781 L 557.746094 97.535156 C 558.058594 97.515625 558.371094 97.554688 558.664062 97.660156 C 558.8125 97.726562 558.933594 97.839844 559.007812 97.988281 C 559.09375 98.292969 559.128906 98.617188 559.105469 98.9375 L 559.105469 108.351562 C 559.128906 108.667969 559.09375 108.988281 559.007812 109.296875 C 558.9375 109.4375 558.902344 109.5625 558.738281 109.636719 C 558.574219 109.714844 558.570312 109.707031 558.121094 109.707031 L 558.113281 109.707031 L 556.277344 112.316406 L 560.84375 112.316406 L 560.84375 115.796875 L 562.992188 115.796875 L 562.992188 112.316406 L 564.671875 112.316406 L 564.671875 115.796875 L 566.769531 115.796875 L 566.769531 112.296875 C 567.832031 112.277344 568.882812 112.085938 569.886719 111.734375 C 570.816406 111.402344 571.628906 110.808594 572.230469 110.023438 C 572.753906 109.1875 573.039062 108.226562 573.058594 107.242188 C 573.113281 106.445312 573.019531 105.644531 572.777344 104.882812 Z M 562.992188 97.863281 L 562.992188 97.789062 L 564.460938 97.789062 C 565.285156 97.789062 568.035156 97.503906 568.082031 99.832031 C 568.125 102.15625 564.460938 102.0625 564.460938 102.0625 L 562.992188 102.0625 Z M 562.992188 104.492188 L 564.671875 104.492188 C 565.011719 104.492188 566.183594 104.546875 566.613281 104.566406 C 566.785156 104.570312 566.957031 104.605469 567.125 104.660156 C 567.183594 104.679688 567.242188 104.707031 567.304688 104.730469 C 567.5625 104.820312 567.808594 104.945312 568.027344 105.109375 C 568.171875 105.210938 568.296875 105.332031 568.402344 105.476562 C 568.558594 105.707031 568.675781 105.964844 568.742188 106.234375 C 568.792969 106.425781 568.820312 106.621094 568.820312 106.816406 C 568.835938 107.191406 568.746094 107.5625 568.558594 107.886719 C 568.289062 108.320312 567.894531 108.65625 567.425781 108.855469 C 566.550781 109.214844 565.617188 109.394531 564.671875 109.382812 L 562.992188 109.382812 Z M 562.992188 104.492188 "/>
</g>
<mask id="mask1">
  <g filter="url(#alpha)">
<rect x="0" y="0" width="873" height="589" style="fill:rgb(0%,0%,0%);fill-opacity:0.101961;stroke:none;"/>
  </g>
</mask>
<clipPath id="clip2">
  <rect x="0" y="0" width="873" height="589"/>
</clipPath>
<g id="surface8" clip-path="url(#clip2)">
<path style=" stroke:none;fill-rule:nonzero;fill:rgb(0%,0%,0%);fill-opacity:1;" d="M 779.847656 585.210938 C 779.171875 586.027344 778.578125 586.71875 778.089844 587.289062 C 777.003906 588.527344 776.390625 589.175781 776.390625 589.175781 C 776.390625 589.175781 775.640625 588.234375 774.386719 586.476562 C 767.492188 576.855469 745.3125 542.652344 747.023438 503.144531 C 747.117188 501.074219 747.269531 499.027344 747.480469 497 C 748.785156 498.390625 750.050781 499.828125 751.28125 501.320312 C 777.234375 532.644531 779.65625 574.792969 779.847656 585.210938 Z M 779.847656 585.210938 "/>
</g>
<mask id="mask2">
  <g filter="url(#alpha)">
<rect x="0" y="0" width="873" height="589" style="fill:rgb(0%,0%,0%);fill-opacity:0.101961;stroke:none;"/>
  </g>
</mask>
<clipPath id="clip3">
  <rect x="0" y="0" width="873" height="589"/>
</clipPath>
<g id="surface11" clip-path="url(#clip3)">
<path style=" stroke:none;fill-rule:nonzero;fill:rgb(0%,0%,0%);fill-opacity:1;" d="M 538.96875 469.101562 C 517.484375 478.878906 489.816406 478.183594 489.816406 478.183594 L 459.875 478.183594 L 459.875 472.464844 C 472.078125 469.054688 488.949219 466.949219 507.59375 466.949219 C 518.089844 466.910156 528.578125 467.632812 538.96875 469.101562 Z M 538.96875 469.101562 "/>
</g>
<mask id="mask3">
  <g filter="url(#alpha)">
<rect x="0" y="0" width="873" height="589" style="fill:rgb(0%,0%,0%);fill-opacity:0.101961;stroke:none;"/>
  </g>
</mask>
<clipPath id="clip4">
  <rect x="0" y="0" width="873" height="589"/>
</clipPath>
<g id="surface14" clip-path="url(#clip4)">
<path style=" stroke:none;fill-rule:nonzero;fill:rgb(0%,0%,0%);fill-opacity:1;" d="M 574.964844 485.675781 C 574.964844 496.023438 544.796875 504.402344 507.59375 504.402344 C 470.390625 504.402344 440.226562 496.023438 440.226562 485.675781 C 440.226562 480.515625 447.730469 475.84375 459.875 472.464844 L 459.875 478.183594 L 489.816406 478.183594 C 489.816406 478.183594 517.484375 478.878906 538.96875 469.101562 C 560.367188 472.230469 574.964844 478.476562 574.964844 485.675781 Z M 574.964844 485.675781 "/>
</g>
<mask id="mask4">
  <g filter="url(#alpha)">
<rect x="0" y="0" width="873" height="589" style="fill:rgb(0%,0%,0%);fill-opacity:0.101961;stroke:none;"/>
  </g>
</mask>
<clipPath id="clip5">
  <rect x="0" y="0" width="873" height="589"/>
</clipPath>
<g id="surface17" clip-path="url(#clip5)">
<path style=" stroke:none;fill-rule:nonzero;fill:rgb(0%,0%,0%);fill-opacity:1;" d="M 498.195312 389.386719 C 498.195312 389.386719 500.566406 397.699219 496.414062 398.292969 C 493.839844 398.695312 491.398438 399.710938 489.296875 401.261719 L 497.007812 411.351562 L 511.246094 411.351562 L 520.140625 402.449219 C 520.140625 402.449219 508.277344 393.542969 510.652344 388.199219 C 513.023438 382.859375 498.195312 389.386719 498.195312 389.386719 Z M 498.195312 389.386719 "/>
</g>
<mask id="mask5">
  <g filter="url(#alpha)">
<rect x="0" y="0" width="873" height="589" style="fill:rgb(0%,0%,0%);fill-opacity:0.2;stroke:none;"/>
  </g>
</mask>
<clipPath id="clip6">
  <rect x="0" y="0" width="873" height="589"/>
</clipPath>
<g id="surface20" clip-path="url(#clip6)">
<path style=" stroke:none;fill-rule:nonzero;fill:rgb(0%,0%,0%);fill-opacity:1;" d="M 481.585938 463.589844 C 481.585938 463.589844 470.316406 479.023438 478.621094 483.179688 C 486.925781 487.335938 526.667969 487.335938 529.632812 483.179688 C 532.597656 479.023438 533.785156 465.964844 529.632812 464.777344 C 525.480469 463.589844 481.585938 463.589844 481.585938 463.589844 Z M 481.585938 463.589844 "/>
</g>
<mask id="mask6">
  <g filter="url(#alpha)">
<rect x="0" y="0" width="873" height="589" style="fill:rgb(0%,0%,0%);fill-opacity:0.2;stroke:none;"/>
  </g>
</mask>
<clipPath id="clip7">
  <rect x="0" y="0" width="873" height="589"/>
</clipPath>
<g id="surface23" clip-path="url(#clip7)">
<path style="fill:none;stroke-width:2;stroke-linecap:butt;stroke-linejoin:miter;stroke:rgb(0%,0%,0%);stroke-opacity:1;stroke-miterlimit:10;" d="M 713.955363 626.041167 C 713.955363 626.041167 708.248519 628.577457 706.344847 630.479675 C 704.445349 632.381893 696.20445 635.552256 696.20445 635.552256 " transform="matrix(0.935691,0,0,0.936407,-124.764491,-126.795734)"/>
</g>
<mask id="mask7">
  <g filter="url(#alpha)">
<rect x="0" y="0" width="873" height="589" style="fill:rgb(0%,0%,0%);fill-opacity:0.2;stroke:none;"/>
  </g>
</mask>
<clipPath id="clip8">
  <rect x="0" y="0" width="873" height="589"/>
</clipPath>
<g id="surface26" clip-path="url(#clip8)">
<path style="fill:none;stroke-width:2;stroke-linecap:butt;stroke-linejoin:miter;stroke:rgb(0%,0%,0%);stroke-opacity:1;stroke-miterlimit:10;" d="M 635.979928 629.21153 C 635.979928 629.21153 642.321329 634.28411 648.023997 635.552256 C 653.730841 636.820401 655.630339 639.990764 655.630339 639.990764 " transform="matrix(0.935691,0,0,0.936407,-124.764491,-126.795734)"/>
</g>
<mask id="mask8">
  <g filter="url(#alpha)">
<rect x="0" y="0" width="873" height="589" style="fill:rgb(0%,0%,0%);fill-opacity:0.301961;stroke:none;"/>
  </g>
</mask>
<clipPath id="clip9">
  <rect x="0" y="0" width="873" height="589"/>
</clipPath>
<g id="surface29" clip-path="url(#clip9)">
<path style=" stroke:none;fill-rule:nonzero;fill:rgb(42.352941%,38.823529%,100%);fill-opacity:1;" d="M 723.488281 347.132812 C 723.265625 346.585938 722.859375 346.136719 722.339844 345.859375 C 722.019531 345.671875 721.667969 345.527344 721.304688 345.4375 C 721.550781 345.320312 721.773438 345.164062 721.96875 344.972656 C 722.261719 344.703125 722.480469 344.363281 722.605469 343.988281 C 722.726562 343.605469 722.773438 343.199219 722.75 342.796875 C 722.746094 342.128906 722.5625 341.476562 722.210938 340.90625 C 721.820312 340.386719 721.289062 339.992188 720.679688 339.765625 C 720.085938 339.535156 719.457031 339.410156 718.824219 339.390625 L 718.824219 336.691406 L 717.195312 337.746094 L 717.195312 339.394531 L 715.890625 339.394531 L 715.890625 337.664062 L 714.21875 336.691406 L 714.21875 339.394531 L 710.667969 339.394531 L 711.808594 341.421875 C 712.050781 341.40625 712.292969 341.4375 712.523438 341.519531 C 712.636719 341.570312 712.730469 341.660156 712.789062 341.773438 C 712.855469 342.011719 712.882812 342.261719 712.863281 342.511719 L 712.863281 349.824219 C 712.882812 350.074219 712.855469 350.320312 712.789062 350.558594 C 712.734375 350.667969 712.707031 350.765625 712.578125 350.824219 C 712.453125 350.886719 712.449219 350.882812 712.097656 350.882812 L 712.09375 350.882812 L 710.667969 352.90625 L 714.214844 352.90625 L 714.214844 355.609375 L 715.886719 355.609375 L 715.886719 352.90625 L 717.1875 352.90625 L 717.1875 355.609375 L 718.820312 355.609375 L 718.820312 352.890625 C 719.644531 352.875 720.460938 352.730469 721.242188 352.457031 C 721.964844 352.199219 722.597656 351.734375 723.0625 351.125 C 723.46875 350.476562 723.691406 349.730469 723.707031 348.964844 C 723.75 348.34375 723.675781 347.722656 723.488281 347.132812 Z M 715.886719 341.675781 L 715.886719 341.617188 L 717.023438 341.617188 C 717.667969 341.617188 719.804688 341.398438 719.839844 343.207031 C 719.875 345.011719 717.023438 344.9375 717.023438 344.9375 L 715.886719 344.9375 Z M 715.886719 346.828125 L 717.1875 346.828125 C 717.453125 346.828125 718.367188 346.867188 718.699219 346.882812 C 718.832031 346.890625 718.96875 346.914062 719.09375 346.957031 C 719.140625 346.972656 719.1875 346.992188 719.234375 347.015625 C 719.4375 347.082031 719.625 347.179688 719.796875 347.308594 C 719.910156 347.386719 720.007812 347.480469 720.085938 347.589844 C 720.210938 347.769531 720.300781 347.96875 720.355469 348.183594 C 720.390625 348.328125 720.414062 348.480469 720.414062 348.632812 C 720.425781 348.925781 720.355469 349.214844 720.210938 349.464844 C 720 349.800781 719.695312 350.0625 719.332031 350.21875 C 718.652344 350.496094 717.921875 350.636719 717.1875 350.628906 L 715.886719 350.628906 Z M 715.886719 346.828125 "/>
</g>
<mask id="mask9">
  <g filter="url(#alpha)">
<rect x="0" y="0" width="873" height="589" style="fill:rgb(0%,0%,0%);fill-opacity:0.301961;stroke:none;"/>
  </g>
</mask>
<clipPath id="clip10">
  <rect x="0" y="0" width="873" height="589"/>
</clipPath>
<g id="surface32" clip-path="url(#clip10)">
<path style=" stroke:none;fill-rule:nonzero;fill:rgb(42.352941%,38.823529%,100%);fill-opacity:1;" d="M 66.632812 406.125 C 66.410156 405.578125 66.003906 405.128906 65.484375 404.855469 C 65.164062 404.664062 64.8125 404.523438 64.449219 404.429688 C 64.695312 404.3125 64.921875 404.15625 65.113281 403.964844 C 65.40625 403.695312 65.625 403.359375 65.75 402.984375 C 65.871094 402.597656 65.917969 402.195312 65.894531 401.792969 C 65.890625 401.125 65.707031 400.46875 65.355469 399.898438 C 64.964844 399.378906 64.433594 398.984375 63.824219 398.761719 C 63.230469 398.53125 62.601562 398.402344 61.96875 398.382812 L 61.96875 395.6875 L 60.339844 396.742188 L 60.339844 398.386719 L 59.035156 398.386719 L 59.035156 396.65625 L 57.363281 395.6875 L 57.363281 398.386719 L 53.8125 398.386719 L 54.953125 400.414062 C 55.195312 400.398438 55.4375 400.433594 55.667969 400.511719 C 55.78125 400.5625 55.875 400.652344 55.933594 400.765625 C 56 401.003906 56.027344 401.253906 56.007812 401.503906 L 56.007812 408.820312 C 56.027344 409.066406 56 409.316406 55.933594 409.554688 C 55.878906 409.664062 55.851562 409.761719 55.722656 409.820312 C 55.597656 409.878906 55.59375 409.875 55.242188 409.875 L 55.238281 409.875 L 53.8125 411.902344 L 57.359375 411.902344 L 57.359375 414.605469 L 59.03125 414.605469 L 59.03125 411.902344 L 60.332031 411.902344 L 60.332031 414.605469 L 61.964844 414.605469 L 61.964844 411.886719 C 62.789062 411.871094 63.605469 411.722656 64.386719 411.449219 C 65.109375 411.191406 65.742188 410.730469 66.207031 410.121094 C 66.613281 409.46875 66.835938 408.722656 66.851562 407.957031 C 66.894531 407.339844 66.820312 406.714844 66.632812 406.125 Z M 59.03125 400.667969 L 59.03125 400.613281 L 60.167969 400.613281 C 60.8125 400.613281 62.949219 400.390625 62.984375 402.199219 C 63.019531 404.007812 60.167969 403.933594 60.167969 403.933594 L 59.03125 403.933594 Z M 59.03125 405.820312 L 60.335938 405.820312 C 60.597656 405.820312 61.511719 405.863281 61.84375 405.878906 C 61.976562 405.882812 62.113281 405.90625 62.238281 405.953125 C 62.285156 405.96875 62.332031 405.988281 62.378906 406.007812 C 62.582031 406.074219 62.769531 406.175781 62.941406 406.300781 C 63.054688 406.378906 63.152344 406.476562 63.230469 406.585938 C 63.355469 406.765625 63.445312 406.964844 63.5 407.175781 C 63.535156 407.324219 63.558594 407.476562 63.558594 407.628906 C 63.570312 407.917969 63.5 408.207031 63.355469 408.460938 C 63.144531 408.792969 62.839844 409.058594 62.476562 409.210938 C 61.796875 409.488281 61.066406 409.628906 60.332031 409.621094 L 59.03125 409.621094 Z M 59.03125 405.820312 "/>
</g>
</defs>
<g id="surface1">
<path style=" stroke:none;fill-rule:nonzero;fill:rgb(94.901961%,94.901961%,94.901961%);fill-opacity:1;" d="M 594.613281 103.621094 C 594.613281 120.171875 581.210938 133.585938 564.671875 133.585938 C 548.136719 133.585938 534.730469 120.171875 534.730469 103.621094 C 534.730469 87.074219 548.136719 73.65625 564.671875 73.65625 C 581.210938 73.65625 594.613281 87.074219 594.613281 103.621094 Z M 594.613281 103.621094 "/>
<path style=" stroke:none;fill-rule:nonzero;fill:rgb(94.901961%,94.901961%,94.901961%);fill-opacity:1;" d="M 167.496094 0 L 679.914062 313.746094 L 512.417969 587.722656 L 0 273.976562 Z M 167.496094 0 "/>
<path style=" stroke:none;fill-rule:nonzero;fill:rgb(24.705882%,23.921569%,33.72549%);fill-opacity:1;" d="M 634.382812 400.648438 C 629.703125 389.882812 622.5 380.425781 608.089844 372.464844 C 600.640625 368.25 592.640625 365.097656 584.324219 363.101562 C 589.917969 360.496094 595.066406 357.019531 599.574219 352.800781 C 606.199219 346.875 611.21875 339.367188 614.171875 330.980469 C 616.886719 322.457031 618 313.503906 617.445312 304.574219 C 616.417969 288.84375 613.328125 273.578125 605.09375 262.625 C 596.859375 251.667969 585.257812 243.242188 569.914062 237.339844 C 558.121094 232.847656 546.050781 230.035156 527.339844 229.007812 L 527.339844 169.171875 L 489.910156 192.582031 L 489.910156 229.101562 L 459.96875 229.101562 L 459.96875 190.707031 L 421.605469 169.171875 L 421.605469 229.101562 L 340.105469 229.101562 L 366.304688 274.046875 C 374.398438 274.058594 379.882812 274.804688 382.679688 276.203125 C 385.292969 277.320312 387.441406 279.304688 388.761719 281.820312 C 389.980469 284.160156 390.539062 289.6875 390.539062 298.207031 L 390.539062 460.394531 C 390.539062 468.820312 389.980469 474.25 388.761719 476.6875 C 387.546875 479.121094 386.890625 481.273438 383.992188 482.585938 C 381.089844 483.898438 380.996094 483.804688 372.949219 483.804688 L 372.855469 483.804688 L 340.105469 528.75 L 421.511719 528.75 L 421.511719 588.679688 L 459.875 588.679688 L 459.875 528.75 L 489.816406 528.75 L 489.816406 588.679688 L 527.246094 588.679688 L 527.246094 528.375 C 551.574219 527.160156 568.882812 523.976562 582.824219 518.730469 C 600.882812 511.988281 614.730469 502.15625 624.652344 489.234375 C 634.570312 476.3125 638.59375 456.554688 639.433594 441.289062 C 640.089844 427.710938 638.59375 410.203125 634.382812 400.648438 Z M 459.875 279.667969 L 459.882812 279.667969 L 459.882812 278.421875 L 486.046875 278.421875 C 500.765625 278.421875 549.8125 273.515625 550.628906 313.601562 C 551.453125 353.6875 486.046875 352.050781 486.046875 352.050781 L 459.882812 352.050781 L 459.882812 348.960938 L 459.875 348.960938 Z M 459.875 393.90625 L 489.816406 393.90625 C 495.898438 393.90625 516.820312 394.835938 524.4375 395.183594 C 527.542969 395.292969 530.617188 395.84375 533.570312 396.8125 C 534.644531 397.175781 535.667969 397.589844 536.769531 398.046875 C 541.386719 399.539062 545.738281 401.746094 549.671875 404.582031 C 552.238281 406.277344 554.496094 408.398438 556.34375 410.855469 C 557.148438 411.964844 557.882812 413.121094 558.554688 414.3125 C 560.324219 417.3125 561.640625 420.558594 562.457031 423.949219 C 563.347656 427.21875 563.808594 430.59375 563.832031 433.988281 C 563.832031 441.28125 562.484375 447.320312 559.160156 452.433594 C 554.660156 459.980469 547.277344 465.328125 538.96875 469.101562 C 517.484375 478.878906 489.816406 478.183594 489.816406 478.183594 L 459.875 478.183594 Z M 459.875 393.90625 "/>
<use xlink:href="#surface5" mask="url(#mask0)"/>
<path style=" stroke:none;fill-rule:nonzero;fill:rgb(100%,39.607843%,51.764706%);fill-opacity:1;" d="M 757.777344 434.550781 C 757.777344 440.617188 752.863281 445.535156 746.804688 445.535156 C 740.742188 445.535156 735.828125 440.617188 735.828125 434.550781 C 735.828125 428.484375 740.742188 423.570312 746.804688 423.570312 C 752.863281 423.570312 757.777344 428.484375 757.777344 434.550781 Z M 757.777344 434.550781 "/>
<path style="fill:none;stroke-width:2;stroke-linecap:butt;stroke-linejoin:miter;stroke:rgb(24.705882%,23.921569%,33.72549%);stroke-opacity:1;stroke-miterlimit:10;" d="M 890.597361 591.744064 L 890.597361 458.192527 " transform="matrix(0.935691,0,0,0.936407,0,0)"/>
<path style=" stroke:none;fill-rule:nonzero;fill:rgb(24.705882%,23.921569%,33.72549%);fill-opacity:1;" d="M 850.996094 429.054688 C 850.996094 438.824219 843.082031 446.742188 833.324219 446.742188 C 823.5625 446.742188 815.652344 438.824219 815.652344 429.054688 C 815.652344 419.289062 823.5625 411.371094 833.324219 411.371094 C 843.082031 411.371094 850.996094 419.289062 850.996094 429.054688 Z M 850.996094 429.054688 "/>
<path style=" stroke:none;fill-rule:nonzero;fill:rgb(24.705882%,23.921569%,33.72549%);fill-opacity:1;" d="M 798.519531 499.078125 C 772.996094 538.25 779.988281 588.074219 779.988281 588.074219 C 779.988281 588.074219 828.367188 574.386719 853.894531 535.210938 C 879.417969 496.039062 872.425781 446.214844 872.425781 446.214844 C 872.425781 446.214844 824.046875 459.902344 798.519531 499.078125 Z M 798.519531 499.078125 "/>
<path style=" stroke:none;fill-rule:nonzero;fill:rgb(42.352941%,38.823529%,100%);fill-opacity:1;" d="M 779.851562 587.621094 C 779.851562 587.621094 779.230469 587.519531 778.089844 587.289062 C 777.175781 587.105469 775.917969 586.839844 774.386719 586.476562 C 760.675781 583.238281 724.226562 572.304688 700.394531 543.554688 C 670.566406 507.550781 671.824219 457.253906 671.824219 457.253906 C 671.824219 457.253906 717.429688 464.667969 747.480469 497 C 748.785156 498.390625 750.050781 499.828125 751.28125 501.320312 C 777.234375 532.644531 779.65625 574.792969 779.847656 585.210938 C 779.871094 586.773438 779.851562 587.621094 779.851562 587.621094 Z M 779.851562 587.621094 "/>
<path style="fill:none;stroke-width:2;stroke-linecap:butt;stroke-linejoin:miter;stroke:rgb(24.705882%,23.921569%,33.72549%);stroke-opacity:1;stroke-miterlimit:10;" d="M 947.130218 668.378026 C 974.412018 710.21013 966.935093 763.417997 966.935093 763.417997 C 966.935093 763.417997 915.231176 748.800956 887.953551 706.96468 C 860.67175 665.132576 868.148675 611.924709 868.148675 611.924709 C 868.148675 611.924709 919.852592 626.541751 947.130218 668.378026 Z M 947.130218 668.378026 " transform="matrix(0.935691,0,0,0.936407,-124.764491,-126.795734)"/>
<use xlink:href="#surface8" mask="url(#mask1)"/>
<path style=" stroke:none;fill-rule:nonzero;fill:rgb(42.352941%,38.823529%,100%);fill-opacity:1;" d="M 817.695312 506.003906 C 815.675781 552.726562 781.019531 589.175781 781.019531 589.175781 C 781.019531 589.175781 749.632812 549.871094 751.648438 503.144531 C 753.667969 456.421875 788.324219 419.972656 788.324219 419.972656 C 788.324219 419.972656 819.710938 459.277344 817.695312 506.003906 Z M 817.695312 506.003906 "/>
<path style="fill:none;stroke-width:2;stroke-linecap:butt;stroke-linejoin:miter;stroke:rgb(24.705882%,23.921569%,33.72549%);stroke-opacity:1;stroke-miterlimit:10;" d="M 834.69785 627.77357 L 842.838555 450.529426 " transform="matrix(0.935691,0,0,0.936407,0,0)"/>
<path style="fill:none;stroke-width:2;stroke-linecap:butt;stroke-linejoin:miter;stroke:rgb(24.705882%,23.921569%,33.72549%);stroke-opacity:1;stroke-miterlimit:10;" d="M 57.473381 627.969632 L 903.493073 627.969632 " transform="matrix(0.935691,0,0,0.936407,0,0)"/>
<path style=" stroke:none;fill-rule:nonzero;fill:rgb(42.352941%,38.823529%,100%);fill-opacity:1;" d="M 261.886719 345.613281 C 261.886719 367.710938 243.984375 385.625 221.90625 385.625 C 199.824219 385.625 181.921875 367.710938 181.921875 345.613281 C 181.921875 323.515625 199.824219 305.601562 221.90625 305.601562 C 243.984375 305.601562 261.886719 323.515625 261.886719 345.613281 Z M 261.886719 345.613281 "/>
<path style=" stroke:none;fill-rule:nonzero;fill:rgb(42.352941%,38.823529%,100%);fill-opacity:1;" d="M 193.925781 439.78125 C 193.925781 461.878906 176.027344 479.792969 153.945312 479.792969 C 131.863281 479.792969 113.964844 461.878906 113.964844 439.78125 C 113.964844 417.683594 131.863281 399.769531 153.945312 399.769531 C 176.027344 399.769531 193.925781 417.683594 193.925781 439.78125 Z M 193.925781 439.78125 "/>
<path style=" stroke:none;fill-rule:nonzero;fill:rgb(42.352941%,38.823529%,100%);fill-opacity:1;" d="M 110.285156 514.988281 C 110.285156 537.085938 92.386719 555 70.304688 555 C 48.222656 555 30.320312 537.085938 30.320312 514.988281 C 30.320312 492.886719 48.222656 474.972656 70.304688 474.972656 C 92.386719 474.972656 110.285156 492.886719 110.285156 514.988281 Z M 110.285156 514.988281 "/>
<path style="fill:none;stroke-width:2;stroke-linecap:butt;stroke-linejoin:miter;stroke:rgb(24.705882%,23.921569%,33.72549%);stroke-opacity:1;stroke-miterlimit:10;" d="M 75.099052 627.235443 L 75.099052 549.724241 " transform="matrix(0.935691,0,0,0.936407,0,0)"/>
<path style=" stroke:none;fill-rule:nonzero;fill:rgb(24.705882%,23.921569%,33.72549%);fill-opacity:1;" d="M 80.523438 514.765625 C 80.523438 520.433594 75.933594 525.03125 70.269531 525.03125 C 64.605469 525.03125 60.011719 520.433594 60.011719 514.765625 C 60.011719 509.097656 64.605469 504.503906 70.269531 504.503906 C 75.933594 504.503906 80.523438 509.097656 80.523438 514.765625 Z M 80.523438 514.765625 "/>
<path style=" stroke:none;fill-rule:nonzero;fill:rgb(24.705882%,23.921569%,33.72549%);fill-opacity:1;" d="M 70.269531 559.5 C 70.269531 559.5 68.804688 527.964844 38.765625 531.628906 "/>
<path style="fill:none;stroke-width:2;stroke-linecap:butt;stroke-linejoin:miter;stroke:rgb(24.705882%,23.921569%,33.72549%);stroke-opacity:1;stroke-miterlimit:10;" d="M 237.182587 627.777742 L 237.182587 369.24299 " transform="matrix(0.935691,0,0,0.936407,0,0)"/>
<path style=" stroke:none;fill-rule:nonzero;fill:rgb(24.705882%,23.921569%,33.72549%);fill-opacity:1;" d="M 232.1875 345.644531 C 232.1875 351.3125 227.59375 355.910156 221.929688 355.910156 C 216.265625 355.910156 211.671875 351.3125 211.671875 345.644531 C 211.671875 339.976562 216.265625 335.382812 221.929688 335.382812 C 227.59375 335.382812 232.1875 339.976562 232.1875 345.644531 Z M 232.1875 345.644531 "/>
<path style=" stroke:none;fill-rule:nonzero;fill:rgb(24.705882%,23.921569%,33.72549%);fill-opacity:1;" d="M 200.683594 520.804688 C 200.683594 526.472656 196.09375 531.066406 190.429688 531.066406 C 184.765625 531.066406 180.171875 526.472656 180.171875 520.804688 C 180.171875 515.136719 184.765625 510.539062 190.429688 510.539062 C 196.09375 510.539062 200.683594 515.136719 200.683594 520.804688 Z M 200.683594 520.804688 "/>
<path style=" stroke:none;fill-rule:nonzero;fill:rgb(24.705882%,23.921569%,33.72549%);fill-opacity:1;" d="M 221.929688 398.074219 C 221.929688 398.074219 220.464844 366.539062 190.429688 370.203125 "/>
<path style=" stroke:none;fill-rule:nonzero;fill:rgb(24.705882%,23.921569%,33.72549%);fill-opacity:1;" d="M 221.929688 487.476562 C 221.929688 487.476562 220.464844 455.941406 190.429688 459.605469 "/>
<path style="fill:none;stroke-width:2;stroke-linecap:butt;stroke-linejoin:miter;stroke:rgb(24.705882%,23.921569%,33.72549%);stroke-opacity:1;stroke-miterlimit:10;" d="M 370.521957 760.172547 C 370.521957 760.172547 377.568886 694.708724 336.857009 691.580077 " transform="matrix(0.935691,0,0,0.936407,-124.764491,-126.795734)"/>
<path style=" stroke:none;fill-rule:nonzero;fill:rgb(24.705882%,23.921569%,33.72549%);fill-opacity:1;" d="M 263.691406 520.804688 C 263.691406 526.472656 259.097656 531.066406 253.433594 531.066406 C 247.769531 531.066406 243.179688 526.472656 243.179688 520.804688 C 243.179688 515.136719 247.769531 510.539062 253.433594 510.539062 C 259.097656 510.539062 263.691406 515.136719 263.691406 520.804688 Z M 263.691406 520.804688 "/>
<path style="fill:none;stroke-width:2;stroke-linecap:butt;stroke-linejoin:miter;stroke:rgb(24.705882%,23.921569%,33.72549%);stroke-opacity:1;stroke-miterlimit:10;" d="M 370.526132 760.172547 C 370.526132 760.172547 363.479203 694.708724 404.19108 691.580077 " transform="matrix(0.935691,0,0,0.936407,-124.764491,-126.795734)"/>
<path style=" stroke:none;fill-rule:nonzero;fill:rgb(24.705882%,23.921569%,33.72549%);fill-opacity:1;" d="M 264.316406 424.523438 C 264.316406 430.191406 259.722656 434.789062 254.058594 434.789062 C 248.394531 434.789062 243.804688 430.191406 243.804688 424.523438 C 243.804688 418.855469 248.394531 414.257812 254.058594 414.257812 C 259.722656 414.257812 264.316406 418.855469 264.316406 424.523438 Z M 264.316406 424.523438 "/>
<path style="fill:none;stroke-width:2;stroke-linecap:butt;stroke-linejoin:miter;stroke:rgb(24.705882%,23.921569%,33.72549%);stroke-opacity:1;stroke-miterlimit:10;" d="M 371.194087 653.861101 C 371.194087 653.861101 364.147158 591.893021 404.859035 588.760202 " transform="matrix(0.935691,0,0,0.936407,-124.764491,-126.795734)"/>
<path style="fill:none;stroke-width:2;stroke-linecap:butt;stroke-linejoin:miter;stroke:rgb(24.705882%,23.921569%,33.72549%);stroke-opacity:1;stroke-miterlimit:10;" d="M 164.563319 627.414819 L 164.563319 469.601662 " transform="matrix(0.935691,0,0,0.936407,0,0)"/>
<path style=" stroke:none;fill-rule:nonzero;fill:rgb(24.705882%,23.921569%,33.72549%);fill-opacity:1;" d="M 164.238281 439.738281 C 164.238281 445.40625 159.644531 450 153.980469 450 C 148.316406 450 143.726562 445.40625 143.726562 439.738281 C 143.726562 434.070312 148.316406 429.472656 153.980469 429.472656 C 159.644531 429.472656 164.238281 434.070312 164.238281 439.738281 Z M 164.238281 439.738281 "/>
<path style=" stroke:none;fill-rule:nonzero;fill:rgb(24.705882%,23.921569%,33.72549%);fill-opacity:1;" d="M 153.980469 481.539062 C 153.980469 481.539062 152.515625 450 122.480469 453.667969 "/>
<path style="fill:none;stroke-width:2;stroke-linecap:butt;stroke-linejoin:miter;stroke:rgb(24.705882%,23.921569%,33.72549%);stroke-opacity:1;stroke-miterlimit:10;" d="M 297.902689 759.809624 C 297.902689 759.809624 304.949618 695.042447 264.23774 691.913799 " transform="matrix(0.935691,0,0,0.936407,-124.764491,-126.795734)"/>
<path style=" stroke:none;fill-rule:nonzero;fill:rgb(24.705882%,23.921569%,33.72549%);fill-opacity:1;" d="M 132.738281 521.117188 C 132.738281 526.785156 128.144531 531.378906 122.480469 531.378906 C 116.816406 531.378906 112.226562 526.785156 112.226562 521.117188 C 112.226562 515.449219 116.816406 510.851562 122.480469 510.851562 C 128.144531 510.851562 132.738281 515.449219 132.738281 521.117188 Z M 132.738281 521.117188 "/>
<path style=" stroke:none;fill-rule:nonzero;fill:rgb(94.901961%,94.901961%,94.901961%);fill-opacity:1;" d="M 734.03125 346.152344 C 734.03125 355.460938 726.492188 363.007812 717.191406 363.007812 C 707.886719 363.007812 700.347656 355.460938 700.347656 346.152344 C 700.347656 336.84375 707.886719 329.296875 717.191406 329.296875 C 726.492188 329.296875 734.03125 336.84375 734.03125 346.152344 Z M 734.03125 346.152344 "/>
<use xlink:href="#surface11" mask="url(#mask2)"/>
<use xlink:href="#surface14" mask="url(#mask3)"/>
<path style=" stroke:none;fill-rule:nonzero;fill:rgb(18.431373%,18.039216%,25.490196%);fill-opacity:1;" d="M 487.535156 369.066406 L 516.199219 369.066406 L 516.199219 397.804688 L 487.535156 397.804688 Z M 487.535156 369.066406 "/>
<path style=" stroke:none;fill-rule:nonzero;fill:rgb(100%,72.54902%,72.54902%);fill-opacity:1;" d="M 498.195312 389.386719 C 498.195312 389.386719 500.566406 397.699219 496.414062 398.292969 C 493.839844 398.695312 491.398438 399.710938 489.296875 401.261719 L 497.007812 411.351562 L 511.246094 411.351562 L 520.140625 402.449219 C 520.140625 402.449219 508.277344 393.542969 510.652344 388.199219 C 513.023438 382.859375 498.195312 389.386719 498.195312 389.386719 Z M 498.195312 389.386719 "/>
<use xlink:href="#surface17" mask="url(#mask4)"/>
<path style=" stroke:none;fill-rule:nonzero;fill:rgb(100%,72.54902%,72.54902%);fill-opacity:1;" d="M 501.753906 492.675781 L 515.398438 497.425781 L 524.886719 498.019531 L 524.292969 489.710938 L 504.71875 483.914062 Z M 501.753906 492.675781 "/>
<path style=" stroke:none;fill-rule:nonzero;fill:rgb(18.431373%,18.039216%,25.490196%);fill-opacity:1;" d="M 519.253906 490.898438 C 519.253906 490.898438 519.253906 499.207031 520.4375 499.207031 C 521.625 499.207031 537.640625 497.425781 542.386719 499.207031 C 547.132812 500.988281 554.25 494.457031 550.691406 490.898438 C 547.132812 487.335938 541.324219 481.992188 537.703125 483.179688 C 534.082031 484.367188 519.253906 487.335938 519.253906 487.335938 Z M 519.253906 490.898438 "/>
<path style=" stroke:none;fill-rule:nonzero;fill:rgb(18.431373%,18.039216%,25.490196%);fill-opacity:1;" d="M 475.65625 483.179688 C 475.65625 483.179688 468.535156 497.425781 473.28125 498.613281 C 478.027344 499.800781 483.367188 498.019531 483.960938 497.425781 C 484.550781 496.832031 492.855469 494.457031 494.042969 495.644531 C 495.230469 496.832031 495.230469 490.898438 495.230469 490.898438 Z M 475.65625 483.179688 "/>
<path style=" stroke:none;fill-rule:nonzero;fill:rgb(18.431373%,18.039216%,25.490196%);fill-opacity:1;" d="M 481.585938 463.589844 C 481.585938 463.589844 470.316406 479.023438 478.621094 483.179688 C 486.925781 487.335938 526.667969 487.335938 529.632812 483.179688 C 532.597656 479.023438 533.785156 465.964844 529.632812 464.777344 C 525.480469 463.589844 481.585938 463.589844 481.585938 463.589844 Z M 481.585938 463.589844 "/>
<use xlink:href="#surface20" mask="url(#mask5)"/>
<path style=" stroke:none;fill-rule:nonzero;fill:rgb(100%,72.54902%,72.54902%);fill-opacity:1;" d="M 516.582031 379.890625 C 516.582031 387.429688 510.476562 393.542969 502.941406 393.542969 C 495.40625 393.542969 489.296875 387.429688 489.296875 379.890625 C 489.296875 372.347656 495.40625 366.238281 502.941406 366.238281 C 510.476562 366.238281 516.582031 372.347656 516.582031 379.890625 Z M 516.582031 379.890625 "/>
<path style=" stroke:none;fill-rule:nonzero;fill:rgb(42.352941%,38.823529%,100%);fill-opacity:1;" d="M 481.585938 401.261719 L 493.449219 398.886719 C 493.449219 398.886719 496.414062 408.382812 505.90625 406.601562 C 515.398438 404.820312 517.769531 398.886719 517.769531 398.886719 C 517.769531 398.886719 524.886719 401.855469 525.480469 401.855469 C 526.074219 401.855469 533.785156 404.820312 533.785156 406.601562 C 533.785156 408.382812 524.886719 426.191406 524.886719 426.191406 L 526.074219 458.246094 L 482.179688 457.058594 L 485.144531 425.597656 Z M 481.585938 401.261719 "/>
<path style=" stroke:none;fill-rule:nonzero;fill:rgb(100%,72.54902%,72.54902%);fill-opacity:1;" d="M 475.0625 416.695312 C 475.0625 416.695312 471.503906 448.15625 473.875 450.53125 C 476.25 452.90625 485.738281 459.433594 485.738281 459.433594 L 485.738281 452.3125 L 480.992188 443.40625 L 485.738281 422.628906 Z M 475.0625 416.695312 "/>
<path style=" stroke:none;fill-rule:nonzero;fill:rgb(100%,72.54902%,72.54902%);fill-opacity:1;" d="M 536.453125 415.804688 C 536.453125 415.804688 534.378906 448.15625 534.378906 449.34375 C 534.378906 450.53125 529.039062 454.6875 527.261719 454.6875 C 525.480469 454.6875 524.292969 451.71875 524.292969 451.71875 L 528.445312 446.96875 L 525.480469 422.628906 Z M 536.453125 415.804688 "/>
<path style=" stroke:none;fill-rule:nonzero;fill:rgb(18.431373%,18.039216%,25.490196%);fill-opacity:1;" d="M 530.820312 461.214844 C 530.820312 461.214844 557.511719 446.375 558.105469 461.214844 C 558.699219 476.054688 544.460938 481.992188 544.460938 481.992188 C 544.460938 481.992188 507.6875 493.027344 506.203125 488.996094 C 504.71875 484.960938 501.753906 478.429688 504.125 477.835938 C 506.5 477.242188 509.464844 476.054688 510.652344 477.242188 C 511.839844 478.429688 526.667969 468.339844 526.667969 468.339844 Z M 530.820312 461.214844 "/>
<use xlink:href="#surface23" mask="url(#mask6)"/>
<path style=" stroke:none;fill-rule:nonzero;fill:rgb(42.352941%,38.823529%,100%);fill-opacity:1;" d="M 485.144531 402.449219 L 481.585938 401.261719 C 481.585938 401.261719 468.535156 414.914062 472.6875 418.476562 C 476.839844 422.035156 479.214844 423.222656 480.398438 424.410156 C 481.585938 425.597656 487.519531 426.191406 487.519531 426.191406 Z M 485.144531 402.449219 "/>
<path style=" stroke:none;fill-rule:nonzero;fill:rgb(42.352941%,38.823529%,100%);fill-opacity:1;" d="M 528.445312 405.414062 L 533.785156 406.601562 C 533.785156 406.601562 537.9375 415.507812 539.125 416.695312 C 540.308594 417.882812 537.34375 417.289062 535.566406 419.664062 C 533.785156 422.035156 532.003906 426.191406 528.445312 426.191406 C 524.886719 426.191406 520.140625 420.257812 520.140625 420.257812 Z M 528.445312 405.414062 "/>
<path style=" stroke:none;fill-rule:nonzero;fill:rgb(18.431373%,18.039216%,25.490196%);fill-opacity:1;" d="M 482.773438 466.558594 C 482.773438 466.558594 460.234375 450.53125 452.523438 462.402344 C 444.808594 474.273438 485.738281 490.304688 491.671875 492.675781 C 497.601562 495.050781 502.941406 497.425781 502.941406 497.425781 C 502.941406 497.425781 508.277344 484.367188 508.277344 481.992188 C 508.277344 479.617188 504.125 479.617188 502.941406 479.617188 C 501.753906 479.617188 496.414062 478.429688 495.230469 476.648438 C 494.042969 474.867188 482.773438 466.558594 482.773438 466.558594 Z M 482.773438 466.558594 "/>
<use xlink:href="#surface26" mask="url(#mask7)"/>
<path style=" stroke:none;fill-rule:nonzero;fill:rgb(34.117647%,35.294118%,53.72549%);fill-opacity:1;" d="M 478.679688 440.082031 L 479.15625 465.21875 C 479.1875 466.945312 480.605469 468.324219 482.332031 468.304688 L 529.070312 467.777344 C 530.722656 467.761719 532.078125 466.464844 532.175781 464.8125 L 533.59375 440.203125 C 533.644531 439.339844 533.335938 438.492188 532.742188 437.863281 C 532.148438 437.234375 531.320312 436.878906 530.453125 436.878906 L 481.824219 436.878906 C 480.980469 436.878906 480.171875 437.21875 479.582031 437.820312 C 478.988281 438.421875 478.664062 439.238281 478.679688 440.082031 Z M 478.679688 440.082031 "/>
<path style=" stroke:none;fill-rule:nonzero;fill:rgb(18.431373%,18.039216%,25.490196%);fill-opacity:1;" d="M 473.273438 401.410156 C 474.546875 398.597656 476.257812 395.960938 477.074219 392.984375 C 478.050781 389.417969 477.671875 385.640625 477.554688 381.945312 C 477.367188 378.675781 477.648438 375.394531 478.382812 372.203125 C 479.125 368.996094 480.800781 366.082031 483.191406 363.820312 C 489.410156 358.265625 500.785156 357.867188 508.375 360.179688 C 511.367188 361.089844 514.554688 362.828125 515.296875 365.867188 C 515.410156 366.328125 515.460938 366.800781 515.585938 367.253906 C 516.207031 369.519531 518.519531 370.953125 519.355469 373.144531 C 520.4375 375.984375 518.769531 379.070312 518.554688 382.097656 C 518.296875 385.636719 520.035156 388.976562 521.746094 392.082031 C 522.765625 393.925781 523.824219 395.890625 523.722656 397.996094 C 523.636719 399.148438 523.289062 400.265625 522.699219 401.257812 C 520.484375 404.917969 516.539062 407.179688 512.261719 407.246094 C 510.894531 407.355469 509.527344 407.03125 508.351562 406.324219 C 506.5 405.046875 505.957031 402.476562 506.34375 400.257812 C 506.730469 398.039062 507.855469 396.035156 508.734375 393.964844 C 509.003906 393.328125 509.25 392.683594 509.472656 392.03125 C 515.117188 388.878906 517.671875 382.117188 515.523438 376.019531 C 513.378906 369.921875 507.15625 366.253906 500.785156 367.335938 C 494.414062 368.417969 489.746094 373.929688 489.730469 380.398438 C 489.714844 386.863281 494.355469 392.402344 500.71875 393.515625 C 501.382812 396.867188 501.082031 400.335938 499.847656 403.523438 C 498.726562 406.113281 497.320312 408.570312 495.648438 410.847656 C 494.96875 412.015625 494.058594 413.03125 492.976562 413.84375 C 492.261719 414.265625 491.496094 414.59375 490.695312 414.816406 C 487.347656 415.894531 483.820312 416.761719 480.332031 416.277344 C 476.847656 415.792969 473.394531 413.6875 472.207031 410.371094 C 471.167969 407.46875 472.003906 404.222656 473.273438 401.410156 Z M 473.273438 401.410156 "/>
<path style=" stroke:none;fill-rule:nonzero;fill:rgb(18.431373%,18.039216%,25.490196%);fill-opacity:1;" d="M 516.757812 372.222656 C 516.757812 367.6875 510.277344 364.011719 502.28125 364.011719 C 494.285156 364.011719 487.800781 367.6875 487.800781 372.222656 C 487.800781 376.757812 494.285156 380.433594 502.28125 380.433594 C 510.277344 380.433594 516.757812 376.757812 516.757812 372.222656 Z M 516.757812 372.222656 "/>
<use xlink:href="#surface29" mask="url(#mask8)"/>
<path style=" stroke:none;fill-rule:nonzero;fill:rgb(94.901961%,94.901961%,94.901961%);fill-opacity:1;" d="M 77.175781 405.144531 C 77.175781 414.453125 69.636719 422 60.335938 422 C 51.035156 422 43.492188 414.453125 43.492188 405.144531 C 43.492188 395.835938 51.035156 388.289062 60.335938 388.289062 C 69.636719 388.289062 77.175781 395.835938 77.175781 405.144531 Z M 77.175781 405.144531 "/>
<use xlink:href="#surface32" mask="url(#mask9)"/>
</g>
</svg>
