<?xml version="1.0" encoding="UTF-8"?>
<svg xmlns="http://www.w3.org/2000/svg" xmlns:xlink="http://www.w3.org/1999/xlink" width="128px" height="128px" viewBox="0 0 128 128" version="1.1">
<defs>
<clipPath id="clip1">
  <path d="M 68.375 35.875 L 128 35.875 L 128 113 L 68.375 113 Z M 68.375 35.875 "/>
</clipPath>
<clipPath id="clip2">
  <path d="M 64 0 C 99.347656 0 128 28.652344 128 64 C 128 99.347656 99.347656 128 64 128 C 28.652344 128 0 99.347656 0 64 C 0 28.652344 28.652344 0 64 0 Z M 64 0 "/>
</clipPath>
<clipPath id="clip3">
  <path d="M 68 41.875 L 128 41.875 L 128 119.375 L 68 119.375 Z M 68 41.875 "/>
</clipPath>
<clipPath id="clip4">
  <path d="M 64 0 C 99.347656 0 128 28.652344 128 64 C 128 99.347656 99.347656 128 64 128 C 28.652344 128 0 99.347656 0 64 C 0 28.652344 28.652344 0 64 0 Z M 64 0 "/>
</clipPath>
<clipPath id="clip5">
  <path d="M 63.875 48.25 L 128 48.25 L 128 121.625 L 63.875 121.625 Z M 63.875 48.25 "/>
</clipPath>
<clipPath id="clip6">
  <path d="M 64 0 C 99.347656 0 128 28.652344 128 64 C 128 99.347656 99.347656 128 64 128 C 28.652344 128 0 99.347656 0 64 C 0 28.652344 28.652344 0 64 0 Z M 64 0 "/>
</clipPath>
<clipPath id="clip7">
  <path d="M 83.625 59.125 L 128 59.125 L 128 128 L 83.625 128 Z M 83.625 59.125 "/>
</clipPath>
<clipPath id="clip8">
  <path d="M 64 0 C 99.347656 0 128 28.652344 128 64 C 128 99.347656 99.347656 128 64 128 C 28.652344 128 0 99.347656 0 64 C 0 28.652344 28.652344 0 64 0 Z M 64 0 "/>
</clipPath>
<clipPath id="clip9">
  <path d="M 98.625 55.75 L 128 55.75 L 128 127.875 L 98.625 127.875 Z M 98.625 55.75 "/>
</clipPath>
<clipPath id="clip10">
  <path d="M 64 0 C 99.347656 0 128 28.652344 128 64 C 128 99.347656 99.347656 128 64 128 C 28.652344 128 0 99.347656 0 64 C 0 28.652344 28.652344 0 64 0 Z M 64 0 "/>
</clipPath>
<clipPath id="clip11">
  <path d="M 97.375 56.75 L 128 56.75 L 128 128 L 97.375 128 Z M 97.375 56.75 "/>
</clipPath>
<clipPath id="clip12">
  <path d="M 64 0 C 99.347656 0 128 28.652344 128 64 C 128 99.347656 99.347656 128 64 128 C 28.652344 128 0 99.347656 0 64 C 0 28.652344 28.652344 0 64 0 Z M 64 0 "/>
</clipPath>
<clipPath id="clip13">
  <path d="M 92.375 58.25 L 128 58.25 L 128 128 L 92.375 128 Z M 92.375 58.25 "/>
</clipPath>
<clipPath id="clip14">
  <path d="M 64 0 C 99.347656 0 128 28.652344 128 64 C 128 99.347656 99.347656 128 64 128 C 28.652344 128 0 99.347656 0 64 C 0 28.652344 28.652344 0 64 0 Z M 64 0 "/>
</clipPath>
<clipPath id="clip15">
  <path d="M 87.5 61.875 L 128 61.875 L 128 128 L 87.5 128 Z M 87.5 61.875 "/>
</clipPath>
<clipPath id="clip16">
  <path d="M 64 0 C 99.347656 0 128 28.652344 128 64 C 128 99.347656 99.347656 128 64 128 C 28.652344 128 0 99.347656 0 64 C 0 28.652344 28.652344 0 64 0 Z M 64 0 "/>
</clipPath>
<clipPath id="clip17">
  <path d="M 87.5 66 L 128 66 L 128 128 L 87.5 128 Z M 87.5 66 "/>
</clipPath>
<clipPath id="clip18">
  <path d="M 64 0 C 99.347656 0 128 28.652344 128 64 C 128 99.347656 99.347656 128 64 128 C 28.652344 128 0 99.347656 0 64 C 0 28.652344 28.652344 0 64 0 Z M 64 0 "/>
</clipPath>
<clipPath id="clip19">
  <path d="M 86.5 69.875 L 128 69.875 L 128 128 L 86.5 128 Z M 86.5 69.875 "/>
</clipPath>
<clipPath id="clip20">
  <path d="M 64 0 C 99.347656 0 128 28.652344 128 64 C 128 99.347656 99.347656 128 64 128 C 28.652344 128 0 99.347656 0 64 C 0 28.652344 28.652344 0 64 0 Z M 64 0 "/>
</clipPath>
<clipPath id="clip21">
  <path d="M 55.375 48.25 L 128 48.25 L 128 121.625 L 55.375 121.625 Z M 55.375 48.25 "/>
</clipPath>
<clipPath id="clip22">
  <path d="M 64 0 C 99.347656 0 128 28.652344 128 64 C 128 99.347656 99.347656 128 64 128 C 28.652344 128 0 99.347656 0 64 C 0 28.652344 28.652344 0 64 0 Z M 64 0 "/>
</clipPath>
<clipPath id="clip23">
  <path d="M 81.25 82.5 L 128 82.5 L 128 128 L 81.25 128 Z M 81.25 82.5 "/>
</clipPath>
<clipPath id="clip24">
  <path d="M 64 0 C 99.347656 0 128 28.652344 128 64 C 128 99.347656 99.347656 128 64 128 C 28.652344 128 0 99.347656 0 64 C 0 28.652344 28.652344 0 64 0 Z M 64 0 "/>
</clipPath>
<clipPath id="clip25">
  <path d="M 80.125 83.5 L 128 83.5 L 128 128 L 80.125 128 Z M 80.125 83.5 "/>
</clipPath>
<clipPath id="clip26">
  <path d="M 64 0 C 99.347656 0 128 28.652344 128 64 C 128 99.347656 99.347656 128 64 128 C 28.652344 128 0 99.347656 0 64 C 0 28.652344 28.652344 0 64 0 Z M 64 0 "/>
</clipPath>
<clipPath id="clip27">
  <path d="M 69.5 87.875 L 128 87.875 L 128 128 L 69.5 128 Z M 69.5 87.875 "/>
</clipPath>
<clipPath id="clip28">
  <path d="M 64 0 C 99.347656 0 128 28.652344 128 64 C 128 99.347656 99.347656 128 64 128 C 28.652344 128 0 99.347656 0 64 C 0 28.652344 28.652344 0 64 0 Z M 64 0 "/>
</clipPath>
<clipPath id="clip29">
  <path d="M 78.5 89.25 L 128 89.25 L 128 128 L 78.5 128 Z M 78.5 89.25 "/>
</clipPath>
<clipPath id="clip30">
  <path d="M 64 0 C 99.347656 0 128 28.652344 128 64 C 128 99.347656 99.347656 128 64 128 C 28.652344 128 0 99.347656 0 64 C 0 28.652344 28.652344 0 64 0 Z M 64 0 "/>
</clipPath>
<clipPath id="clip31">
  <path d="M 78.25 94.875 L 128 94.875 L 128 128 L 78.25 128 Z M 78.25 94.875 "/>
</clipPath>
<clipPath id="clip32">
  <path d="M 64 0 C 99.347656 0 128 28.652344 128 64 C 128 99.347656 99.347656 128 64 128 C 28.652344 128 0 99.347656 0 64 C 0 28.652344 28.652344 0 64 0 Z M 64 0 "/>
</clipPath>
<clipPath id="clip33">
  <path d="M 65.625 88.5 L 128 88.5 L 128 128 L 65.625 128 Z M 65.625 88.5 "/>
</clipPath>
<clipPath id="clip34">
  <path d="M 64 0 C 99.347656 0 128 28.652344 128 64 C 128 99.347656 99.347656 128 64 128 C 28.652344 128 0 99.347656 0 64 C 0 28.652344 28.652344 0 64 0 Z M 64 0 "/>
</clipPath>
<clipPath id="clip35">
  <path d="M 61.625 89.125 L 128 89.125 L 128 128 L 61.625 128 Z M 61.625 89.125 "/>
</clipPath>
<clipPath id="clip36">
  <path d="M 64 0 C 99.347656 0 128 28.652344 128 64 C 128 99.347656 99.347656 128 64 128 C 28.652344 128 0 99.347656 0 64 C 0 28.652344 28.652344 0 64 0 Z M 64 0 "/>
</clipPath>
<clipPath id="clip37">
  <path d="M 70.375 94.875 L 128 94.875 L 128 128 L 70.375 128 Z M 70.375 94.875 "/>
</clipPath>
<clipPath id="clip38">
  <path d="M 64 0 C 99.347656 0 128 28.652344 128 64 C 128 99.347656 99.347656 128 64 128 C 28.652344 128 0 99.347656 0 64 C 0 28.652344 28.652344 0 64 0 Z M 64 0 "/>
</clipPath>
<clipPath id="clip39">
  <path d="M 78.375 94.75 L 128 94.75 L 128 128 L 78.375 128 Z M 78.375 94.75 "/>
</clipPath>
<clipPath id="clip40">
  <path d="M 64 0 C 99.347656 0 128 28.652344 128 64 C 128 99.347656 99.347656 128 64 128 C 28.652344 128 0 99.347656 0 64 C 0 28.652344 28.652344 0 64 0 Z M 64 0 "/>
</clipPath>
<clipPath id="clip41">
  <path d="M 70.625 94.875 L 128 94.875 L 128 128 L 70.625 128 Z M 70.625 94.875 "/>
</clipPath>
<clipPath id="clip42">
  <path d="M 64 0 C 99.347656 0 128 28.652344 128 64 C 128 99.347656 99.347656 128 64 128 C 28.652344 128 0 99.347656 0 64 C 0 28.652344 28.652344 0 64 0 Z M 64 0 "/>
</clipPath>
<clipPath id="clip43">
  <path d="M 70.5 94.875 L 128 94.875 L 128 128 L 70.5 128 Z M 70.5 94.875 "/>
</clipPath>
<clipPath id="clip44">
  <path d="M 64 0 C 99.347656 0 128 28.652344 128 64 C 128 99.347656 99.347656 128 64 128 C 28.652344 128 0 99.347656 0 64 C 0 28.652344 28.652344 0 64 0 Z M 64 0 "/>
</clipPath>
<clipPath id="clip45">
  <path d="M 58.125 89.25 L 128 89.25 L 128 128 L 58.125 128 Z M 58.125 89.25 "/>
</clipPath>
<clipPath id="clip46">
  <path d="M 64 0 C 99.347656 0 128 28.652344 128 64 C 128 99.347656 99.347656 128 64 128 C 28.652344 128 0 99.347656 0 64 C 0 28.652344 28.652344 0 64 0 Z M 64 0 "/>
</clipPath>
<clipPath id="clip47">
  <path d="M 54.75 88.75 L 128 88.75 L 128 128 L 54.75 128 Z M 54.75 88.75 "/>
</clipPath>
<clipPath id="clip48">
  <path d="M 64 0 C 99.347656 0 128 28.652344 128 64 C 128 99.347656 99.347656 128 64 128 C 28.652344 128 0 99.347656 0 64 C 0 28.652344 28.652344 0 64 0 Z M 64 0 "/>
</clipPath>
<clipPath id="clip49">
  <path d="M 53.25 88.5 L 125.875 88.5 L 125.875 128 L 53.25 128 Z M 53.25 88.5 "/>
</clipPath>
<clipPath id="clip50">
  <path d="M 64 0 C 99.347656 0 128 28.652344 128 64 C 128 99.347656 99.347656 128 64 128 C 28.652344 128 0 99.347656 0 64 C 0 28.652344 28.652344 0 64 0 Z M 64 0 "/>
</clipPath>
<clipPath id="clip51">
  <path d="M 52.875 88.5 L 124.375 88.5 L 124.375 128 L 52.875 128 Z M 52.875 88.5 "/>
</clipPath>
<clipPath id="clip52">
  <path d="M 64 0 C 99.347656 0 128 28.652344 128 64 C 128 99.347656 99.347656 128 64 128 C 28.652344 128 0 99.347656 0 64 C 0 28.652344 28.652344 0 64 0 Z M 64 0 "/>
</clipPath>
<clipPath id="clip53">
  <path d="M 36.375 77.125 L 108.25 77.125 L 108.25 128 L 36.375 128 Z M 36.375 77.125 "/>
</clipPath>
<clipPath id="clip54">
  <path d="M 64 0 C 99.347656 0 128 28.652344 128 64 C 128 99.347656 99.347656 128 64 128 C 28.652344 128 0 99.347656 0 64 C 0 28.652344 28.652344 0 64 0 Z M 64 0 "/>
</clipPath>
<clipPath id="clip55">
  <path d="M 34.5 77 L 107.5 77 L 107.5 128 L 34.5 128 Z M 34.5 77 "/>
</clipPath>
<clipPath id="clip56">
  <path d="M 64 0 C 99.347656 0 128 28.652344 128 64 C 128 99.347656 99.347656 128 64 128 C 28.652344 128 0 99.347656 0 64 C 0 28.652344 28.652344 0 64 0 Z M 64 0 "/>
</clipPath>
<clipPath id="clip57">
  <path d="M 32 75.875 L 104.5 75.875 L 104.5 128 L 32 128 Z M 32 75.875 "/>
</clipPath>
<clipPath id="clip58">
  <path d="M 64 0 C 99.347656 0 128 28.652344 128 64 C 128 99.347656 99.347656 128 64 128 C 28.652344 128 0 99.347656 0 64 C 0 28.652344 28.652344 0 64 0 Z M 64 0 "/>
</clipPath>
<clipPath id="clip59">
  <path d="M 51.25 94.875 L 122.5 94.875 L 122.5 128 L 51.25 128 Z M 51.25 94.875 "/>
</clipPath>
<clipPath id="clip60">
  <path d="M 64 0 C 99.347656 0 128 28.652344 128 64 C 128 99.347656 99.347656 128 64 128 C 28.652344 128 0 99.347656 0 64 C 0 28.652344 28.652344 0 64 0 Z M 64 0 "/>
</clipPath>
<clipPath id="clip61">
  <path d="M 43.5 94.875 L 122.375 94.875 L 122.375 128 L 43.5 128 Z M 43.5 94.875 "/>
</clipPath>
<clipPath id="clip62">
  <path d="M 64 0 C 99.347656 0 128 28.652344 128 64 C 128 99.347656 99.347656 128 64 128 C 28.652344 128 0 99.347656 0 64 C 0 28.652344 28.652344 0 64 0 Z M 64 0 "/>
</clipPath>
<clipPath id="clip63">
  <path d="M 43.5 94.875 L 114.625 94.875 L 114.625 128 L 43.5 128 Z M 43.5 94.875 "/>
</clipPath>
<clipPath id="clip64">
  <path d="M 64 0 C 99.347656 0 128 28.652344 128 64 C 128 99.347656 99.347656 128 64 128 C 28.652344 128 0 99.347656 0 64 C 0 28.652344 28.652344 0 64 0 Z M 64 0 "/>
</clipPath>
<clipPath id="clip65">
  <path d="M 43.375 94.875 L 114.5 94.875 L 114.5 128 L 43.375 128 Z M 43.375 94.875 "/>
</clipPath>
<clipPath id="clip66">
  <path d="M 64 0 C 99.347656 0 128 28.652344 128 64 C 128 99.347656 99.347656 128 64 128 C 28.652344 128 0 99.347656 0 64 C 0 28.652344 28.652344 0 64 0 Z M 64 0 "/>
</clipPath>
<clipPath id="clip67">
  <path d="M 44.625 84.75 L 116.625 84.75 L 116.625 128 L 44.625 128 Z M 44.625 84.75 "/>
</clipPath>
<clipPath id="clip68">
  <path d="M 64 0 C 99.347656 0 128 28.652344 128 64 C 128 99.347656 99.347656 128 64 128 C 28.652344 128 0 99.347656 0 64 C 0 28.652344 28.652344 0 64 0 Z M 64 0 "/>
</clipPath>
<clipPath id="clip69">
  <path d="M 41.375 82.375 L 115.75 82.375 L 115.75 128 L 41.375 128 Z M 41.375 82.375 "/>
</clipPath>
<clipPath id="clip70">
  <path d="M 64 0 C 99.347656 0 128 28.652344 128 64 C 128 99.347656 99.347656 128 64 128 C 28.652344 128 0 99.347656 0 64 C 0 28.652344 28.652344 0 64 0 Z M 64 0 "/>
</clipPath>
<clipPath id="clip71">
  <path d="M 29 66.75 L 100 66.75 L 100 128 L 29 128 Z M 29 66.75 "/>
</clipPath>
<clipPath id="clip72">
  <path d="M 64 0 C 99.347656 0 128 28.652344 128 64 C 128 99.347656 99.347656 128 64 128 C 28.652344 128 0 99.347656 0 64 C 0 28.652344 28.652344 0 64 0 Z M 64 0 "/>
</clipPath>
<clipPath id="clip73">
  <path d="M 33.375 76.625 L 105.625 76.625 L 105.625 128 L 33.375 128 Z M 33.375 76.625 "/>
</clipPath>
<clipPath id="clip74">
  <path d="M 64 0 C 99.347656 0 128 28.652344 128 64 C 128 99.347656 99.347656 128 64 128 C 28.652344 128 0 99.347656 0 64 C 0 28.652344 28.652344 0 64 0 Z M 64 0 "/>
</clipPath>
<clipPath id="clip75">
  <path d="M 33.375 76.625 L 104.5 76.625 L 104.5 128 L 33.375 128 Z M 33.375 76.625 "/>
</clipPath>
<clipPath id="clip76">
  <path d="M 64 0 C 99.347656 0 128 28.652344 128 64 C 128 99.347656 99.347656 128 64 128 C 28.652344 128 0 99.347656 0 64 C 0 28.652344 28.652344 0 64 0 Z M 64 0 "/>
</clipPath>
<clipPath id="clip77">
  <path d="M 51.375 92.375 L 123.375 92.375 L 123.375 128 L 51.375 128 Z M 51.375 92.375 "/>
</clipPath>
<clipPath id="clip78">
  <path d="M 64 0 C 99.347656 0 128 28.652344 128 64 C 128 99.347656 99.347656 128 64 128 C 28.652344 128 0 99.347656 0 64 C 0 28.652344 28.652344 0 64 0 Z M 64 0 "/>
</clipPath>
<clipPath id="clip79">
  <path d="M 51.375 94.75 L 122.5 94.75 L 122.5 128 L 51.375 128 Z M 51.375 94.75 "/>
</clipPath>
<clipPath id="clip80">
  <path d="M 64 0 C 99.347656 0 128 28.652344 128 64 C 128 99.347656 99.347656 128 64 128 C 28.652344 128 0 99.347656 0 64 C 0 28.652344 28.652344 0 64 0 Z M 64 0 "/>
</clipPath>
<clipPath id="clip81">
  <path d="M 52.25 89.875 L 124 89.875 L 124 128 L 52.25 128 Z M 52.25 89.875 "/>
</clipPath>
<clipPath id="clip82">
  <path d="M 64 0 C 99.347656 0 128 28.652344 128 64 C 128 99.347656 99.347656 128 64 128 C 28.652344 128 0 99.347656 0 64 C 0 28.652344 28.652344 0 64 0 Z M 64 0 "/>
</clipPath>
<clipPath id="clip83">
  <path d="M 81.75 76.5 L 128 76.5 L 128 128 L 81.75 128 Z M 81.75 76.5 "/>
</clipPath>
<clipPath id="clip84">
  <path d="M 64 0 C 99.347656 0 128 28.652344 128 64 C 128 99.347656 99.347656 128 64 128 C 28.652344 128 0 99.347656 0 64 C 0 28.652344 28.652344 0 64 0 Z M 64 0 "/>
</clipPath>
<clipPath id="clip85">
  <path d="M 29 33 L 99 33 L 99 95 L 29 95 Z M 29 33 "/>
</clipPath>
<clipPath id="clip86">
  <path d="M 64 0 C 99.347656 0 128 28.652344 128 64 C 128 99.347656 99.347656 128 64 128 C 28.652344 128 0 99.347656 0 64 C 0 28.652344 28.652344 0 64 0 Z M 64 0 "/>
</clipPath>
</defs>
<g id="surface1">
<path style=" stroke:none;fill-rule:evenodd;fill:rgb(30.196078%,81.568627%,88.235294%);fill-opacity:1;" d="M 64 0 C 99.347656 0 128 28.652344 128 64 C 128 99.347656 99.347656 128 64 128 C 28.652344 128 0 99.347656 0 64 C 0 28.652344 28.652344 0 64 0 Z M 64 0 "/>
<g clip-path="url(#clip1)" clip-rule="nonzero">
<g clip-path="url(#clip2)" clip-rule="evenodd">
<path style=" stroke:none;fill-rule:evenodd;fill:rgb(0%,67.45098%,75.686275%);fill-opacity:1;" d="M 68.414062 35.949219 L 139.40625 106.941406 L 139.546875 107.101562 L 139.6875 107.265625 L 139.820312 107.433594 L 139.949219 107.601562 L 140.078125 107.777344 L 140.199219 107.953125 L 140.316406 108.132812 L 140.429688 108.316406 L 140.539062 108.5 L 140.648438 108.6875 L 140.746094 108.878906 L 140.84375 109.074219 L 140.9375 109.269531 L 141.023438 109.46875 L 141.105469 109.671875 L 141.183594 109.875 L 141.253906 110.078125 L 141.320312 110.289062 L 141.445312 110.710938 L 141.496094 110.925781 L 141.542969 111.144531 L 141.585938 111.363281 L 141.621094 111.585938 L 141.652344 111.804688 L 141.679688 112.03125 L 141.710938 112.484375 L 141.722656 112.710938 L 141.722656 112.941406 L 70.730469 41.949219 L 70.726562 41.71875 L 70.71875 41.492188 L 70.703125 41.261719 L 70.683594 41.039062 L 70.660156 40.8125 L 70.628906 40.589844 L 70.59375 40.371094 L 70.550781 40.152344 L 70.503906 39.933594 L 70.449219 39.71875 L 70.390625 39.507812 L 70.328125 39.296875 L 70.261719 39.085938 L 70.191406 38.882812 L 70.113281 38.675781 L 70.03125 38.476562 L 69.945312 38.277344 L 69.851562 38.082031 L 69.753906 37.886719 L 69.65625 37.695312 L 69.4375 37.320312 L 69.324219 37.140625 L 69.207031 36.960938 L 69.085938 36.785156 L 68.957031 36.609375 L 68.828125 36.441406 L 68.695312 36.273438 L 68.554688 36.109375 Z M 68.414062 35.949219 "/>
</g>
</g>
<g clip-path="url(#clip3)" clip-rule="nonzero">
<g clip-path="url(#clip4)" clip-rule="evenodd">
<path style=" stroke:none;fill-rule:evenodd;fill:rgb(0%,67.45098%,75.686275%);fill-opacity:1;" d="M 70.730469 41.949219 L 141.722656 112.941406 L 141.722656 113.171875 L 141.710938 113.402344 L 141.679688 113.855469 L 141.652344 114.078125 L 141.621094 114.300781 L 141.585938 114.523438 L 141.542969 114.742188 L 141.496094 114.957031 L 141.445312 115.171875 L 141.382812 115.386719 L 141.320312 115.597656 L 141.253906 115.804688 L 141.183594 116.011719 L 141.105469 116.214844 L 141.023438 116.414062 L 140.9375 116.617188 L 140.84375 116.8125 L 140.746094 117.007812 L 140.648438 117.195312 L 140.429688 117.570312 L 140.316406 117.753906 L 140.199219 117.933594 L 140.078125 118.109375 L 139.820312 118.453125 L 139.6875 118.617188 L 139.40625 118.945312 L 139.257812 119.101562 L 139.109375 119.253906 L 68.117188 48.261719 L 68.265625 48.109375 L 68.414062 47.949219 L 68.554688 47.789062 L 68.695312 47.625 L 68.828125 47.460938 L 69.085938 47.117188 L 69.207031 46.9375 L 69.324219 46.757812 L 69.4375 46.578125 L 69.65625 46.203125 L 69.851562 45.820312 L 69.945312 45.621094 L 70.03125 45.421875 L 70.113281 45.222656 L 70.191406 45.019531 L 70.261719 44.8125 L 70.328125 44.601562 L 70.390625 44.394531 L 70.449219 44.179688 L 70.503906 43.964844 L 70.550781 43.75 L 70.59375 43.53125 L 70.628906 43.308594 L 70.660156 43.085938 L 70.683594 42.863281 L 70.703125 42.636719 L 70.71875 42.410156 L 70.726562 42.179688 Z M 70.730469 41.949219 "/>
</g>
</g>
<g clip-path="url(#clip5)" clip-rule="nonzero">
<g clip-path="url(#clip6)" clip-rule="evenodd">
<path style=" stroke:none;fill-rule:evenodd;fill:rgb(0%,67.45098%,75.686275%);fill-opacity:1;" d="M 68.117188 48.261719 L 139.109375 119.253906 L 139.003906 119.359375 L 138.898438 119.460938 L 138.789062 119.5625 L 138.5625 119.757812 L 138.449219 119.851562 L 138.332031 119.945312 L 138.097656 120.125 L 137.976562 120.210938 L 137.851562 120.296875 L 137.730469 120.382812 L 137.605469 120.464844 L 137.480469 120.542969 L 137.351562 120.621094 L 137.222656 120.695312 L 137.089844 120.769531 L 136.960938 120.839844 L 136.828125 120.910156 L 136.691406 120.976562 L 136.28125 121.164062 L 135.859375 121.328125 L 135.570312 121.429688 L 135.28125 121.515625 L 135.132812 121.558594 L 134.984375 121.597656 L 63.992188 50.605469 L 64.140625 50.566406 L 64.289062 50.523438 L 64.433594 50.480469 L 64.722656 50.386719 L 64.867188 50.335938 L 65.289062 50.171875 L 65.699219 49.984375 L 65.835938 49.917969 L 65.96875 49.847656 L 66.097656 49.777344 L 66.230469 49.703125 L 66.359375 49.628906 L 66.484375 49.550781 L 66.613281 49.46875 L 66.738281 49.390625 L 66.859375 49.304688 L 66.984375 49.21875 L 67.101562 49.132812 L 67.222656 49.042969 L 67.339844 48.953125 L 67.457031 48.859375 L 67.570312 48.765625 L 67.683594 48.667969 L 68.011719 48.363281 Z M 68.117188 48.261719 "/>
</g>
</g>
<g clip-path="url(#clip7)" clip-rule="nonzero">
<g clip-path="url(#clip8)" clip-rule="evenodd">
<path style=" stroke:none;fill-rule:evenodd;fill:rgb(0%,67.45098%,75.686275%);fill-opacity:1;" d="M 83.632812 59.171875 L 154.625 130.164062 L 154.804688 130.359375 L 154.980469 130.554688 L 155.15625 130.753906 L 155.492188 131.160156 L 155.65625 131.363281 L 155.816406 131.570312 L 155.972656 131.777344 L 156.128906 131.988281 L 156.425781 132.417969 L 156.570312 132.632812 L 156.710938 132.855469 L 156.847656 133.074219 L 156.980469 133.300781 L 157.109375 133.523438 L 157.234375 133.753906 L 157.355469 133.980469 L 86.363281 62.988281 L 86.242188 62.757812 L 86.117188 62.53125 L 85.984375 62.304688 L 85.851562 62.082031 L 85.71875 61.863281 L 85.578125 61.640625 L 85.433594 61.425781 L 85.285156 61.210938 L 85.132812 60.996094 L 84.980469 60.785156 L 84.824219 60.578125 L 84.664062 60.371094 L 84.5 60.164062 L 84.332031 59.960938 L 84.164062 59.761719 L 83.988281 59.5625 L 83.8125 59.367188 Z M 83.632812 59.171875 "/>
</g>
</g>
<g clip-path="url(#clip9)" clip-rule="nonzero">
<g clip-path="url(#clip10)" clip-rule="evenodd">
<path style=" stroke:none;fill-rule:evenodd;fill:rgb(0%,67.45098%,75.686275%);fill-opacity:1;" d="M 98.652344 55.84375 L 169.644531 126.839844 L 169.734375 126.957031 L 169.808594 127.082031 L 169.875 127.214844 L 169.925781 127.351562 L 169.960938 127.5 L 169.984375 127.648438 L 169.992188 127.804688 L 99 56.8125 L 98.992188 56.65625 L 98.96875 56.507812 L 98.929688 56.359375 L 98.882812 56.21875 L 98.816406 56.085938 L 98.742188 55.960938 Z M 98.652344 55.84375 "/>
</g>
</g>
<g clip-path="url(#clip11)" clip-rule="nonzero">
<g clip-path="url(#clip12)" clip-rule="evenodd">
<path style=" stroke:none;fill-rule:evenodd;fill:rgb(0%,67.45098%,75.686275%);fill-opacity:1;" d="M 99 56.8125 L 169.992188 127.804688 L 169.984375 127.960938 L 169.960938 128.109375 L 169.925781 128.257812 L 169.875 128.398438 L 169.808594 128.527344 L 169.734375 128.65625 L 169.644531 128.773438 L 169.546875 128.878906 L 169.441406 128.976562 L 169.324219 129.066406 L 169.195312 129.140625 L 169.066406 129.203125 L 168.925781 129.257812 L 168.78125 129.292969 L 168.628906 129.316406 L 168.472656 129.324219 L 97.480469 58.332031 L 97.636719 58.324219 L 97.789062 58.300781 L 97.933594 58.261719 L 98.070312 58.210938 L 98.203125 58.148438 L 98.332031 58.070312 L 98.445312 57.984375 L 98.554688 57.886719 L 98.652344 57.777344 L 98.742188 57.660156 L 98.816406 57.535156 L 98.882812 57.402344 L 98.929688 57.265625 L 98.96875 57.117188 L 98.992188 56.96875 Z M 99 56.8125 "/>
</g>
</g>
<g clip-path="url(#clip13)" clip-rule="nonzero">
<g clip-path="url(#clip14)" clip-rule="evenodd">
<path style=" stroke:none;fill-rule:evenodd;fill:rgb(0%,67.45098%,75.686275%);fill-opacity:1;" d="M 97.480469 58.332031 L 168.472656 129.324219 L 168.28125 129.328125 L 168.09375 129.347656 L 167.910156 129.371094 L 167.726562 129.410156 L 167.546875 129.453125 L 167.367188 129.507812 L 167.195312 129.570312 L 167.023438 129.644531 L 166.855469 129.726562 L 166.6875 129.8125 L 166.523438 129.910156 L 166.363281 130.011719 L 166.203125 130.117188 L 166.046875 130.234375 L 165.890625 130.355469 L 165.585938 130.613281 L 165.4375 130.75 L 165.289062 130.890625 L 165.140625 131.039062 L 164.851562 131.335938 L 164.710938 131.492188 L 164.289062 131.972656 L 164.015625 132.300781 L 163.882812 132.46875 L 163.746094 132.632812 L 163.613281 132.796875 L 163.476562 132.964844 L 92.484375 61.972656 L 92.617188 61.804688 L 92.753906 61.640625 L 92.890625 61.472656 L 93.023438 61.308594 L 93.296875 60.980469 L 93.4375 60.820312 L 93.578125 60.65625 L 93.859375 60.34375 L 94.003906 60.195312 L 94.148438 60.042969 L 94.296875 59.898438 L 94.445312 59.757812 L 94.59375 59.621094 L 94.742188 59.488281 L 94.898438 59.363281 L 95.054688 59.242188 L 95.210938 59.125 L 95.53125 58.914062 L 95.695312 58.820312 L 95.863281 58.734375 L 96.03125 58.652344 L 96.203125 58.578125 L 96.375 58.515625 L 96.554688 58.460938 L 96.734375 58.414062 L 96.914062 58.378906 L 97.101562 58.351562 L 97.289062 58.335938 Z M 97.480469 58.332031 "/>
</g>
</g>
<g clip-path="url(#clip15)" clip-rule="nonzero">
<g clip-path="url(#clip16)" clip-rule="evenodd">
<path style=" stroke:none;fill-rule:evenodd;fill:rgb(0%,67.45098%,75.686275%);fill-opacity:1;" d="M 92.484375 61.972656 L 163.476562 132.964844 L 163.335938 133.140625 L 163.195312 133.3125 L 163.058594 133.484375 L 162.777344 133.828125 L 162.636719 133.992188 L 162.496094 134.160156 L 162.355469 134.324219 L 162.214844 134.484375 L 162.070312 134.644531 L 161.929688 134.800781 L 161.640625 135.105469 L 161.492188 135.25 L 161.347656 135.394531 L 161.199219 135.53125 L 161.046875 135.664062 L 160.898438 135.796875 L 160.742188 135.921875 L 160.589844 136.039062 L 160.429688 136.15625 L 160.273438 136.265625 L 160.113281 136.367188 L 159.949219 136.46875 L 159.78125 136.558594 L 159.613281 136.644531 L 159.445312 136.722656 L 159.269531 136.792969 L 159.09375 136.859375 L 158.914062 136.917969 L 158.730469 136.96875 L 158.542969 137.007812 L 87.550781 66.015625 L 87.738281 65.976562 L 87.921875 65.925781 L 88.101562 65.867188 L 88.277344 65.800781 L 88.449219 65.730469 L 88.621094 65.652344 L 88.789062 65.566406 L 88.957031 65.476562 L 89.117188 65.375 L 89.28125 65.273438 L 89.4375 65.164062 L 89.597656 65.046875 L 89.75 64.929688 L 89.90625 64.804688 L 90.054688 64.671875 L 90.207031 64.539062 L 90.355469 64.398438 L 90.5 64.257812 L 90.648438 64.113281 L 90.9375 63.808594 L 91.078125 63.652344 L 91.222656 63.492188 L 91.363281 63.332031 L 91.503906 63.167969 L 91.925781 62.664062 L 92.066406 62.492188 L 92.203125 62.320312 L 92.34375 62.144531 Z M 92.484375 61.972656 "/>
</g>
</g>
<g clip-path="url(#clip17)" clip-rule="nonzero">
<g clip-path="url(#clip18)" clip-rule="evenodd">
<path style=" stroke:none;fill-rule:evenodd;fill:rgb(0%,67.45098%,75.686275%);fill-opacity:1;" d="M 87.550781 66.015625 L 158.542969 137.007812 L 158.574219 137.128906 L 158.605469 137.246094 L 158.632812 137.363281 L 158.664062 137.484375 L 158.691406 137.601562 L 158.71875 137.722656 L 158.742188 137.84375 L 158.769531 137.964844 L 158.816406 138.207031 L 158.835938 138.328125 L 158.859375 138.453125 L 158.898438 138.695312 L 158.914062 138.820312 L 158.933594 138.945312 L 158.964844 139.195312 L 158.976562 139.320312 L 158.992188 139.445312 L 159.003906 139.570312 L 159.015625 139.699219 L 159.023438 139.828125 L 159.035156 139.953125 L 159.039062 140.082031 L 159.054688 140.339844 L 159.066406 140.726562 L 159.066406 140.988281 L 88.074219 69.996094 L 88.074219 69.867188 L 88.070312 69.734375 L 88.070312 69.605469 L 88.0625 69.347656 L 88.039062 68.960938 L 88.03125 68.835938 L 88.023438 68.707031 L 88.011719 68.578125 L 88 68.453125 L 87.984375 68.328125 L 87.972656 68.203125 L 87.941406 67.953125 L 87.921875 67.828125 L 87.886719 67.582031 L 87.867188 67.457031 L 87.84375 67.335938 L 87.824219 67.214844 L 87.800781 67.09375 L 87.75 66.851562 L 87.726562 66.730469 L 87.699219 66.609375 L 87.671875 66.492188 L 87.640625 66.371094 L 87.613281 66.253906 L 87.582031 66.132812 Z M 87.550781 66.015625 "/>
</g>
</g>
<g clip-path="url(#clip19)" clip-rule="nonzero">
<g clip-path="url(#clip20)" clip-rule="evenodd">
<path style=" stroke:none;fill-rule:evenodd;fill:rgb(0%,67.45098%,75.686275%);fill-opacity:1;" d="M 88.074219 69.996094 L 159.066406 140.988281 L 159.066406 141.207031 L 159.058594 141.425781 L 159.050781 141.640625 L 159.039062 141.859375 L 159.027344 142.074219 L 158.988281 142.503906 L 158.964844 142.71875 L 158.9375 142.929688 L 158.90625 143.144531 L 158.875 143.355469 L 158.796875 143.777344 L 158.753906 143.984375 L 158.710938 144.195312 L 158.609375 144.609375 L 158.5 145.023438 L 158.375 145.429688 L 158.308594 145.632812 L 158.167969 146.039062 L 158.09375 146.238281 L 157.9375 146.636719 L 157.851562 146.832031 L 157.765625 147.03125 L 157.679688 147.226562 L 157.585938 147.421875 L 157.492188 147.613281 L 86.5 76.621094 L 86.59375 76.429688 L 86.6875 76.234375 L 86.773438 76.039062 L 86.859375 75.839844 L 86.945312 75.644531 L 87.101562 75.246094 L 87.175781 75.042969 L 87.246094 74.84375 L 87.316406 74.640625 L 87.382812 74.4375 L 87.507812 74.03125 L 87.617188 73.617188 L 87.71875 73.203125 L 87.761719 72.992188 L 87.804688 72.785156 L 87.882812 72.363281 L 87.914062 72.152344 L 87.945312 71.9375 L 87.972656 71.726562 L 87.996094 71.511719 L 88.035156 71.082031 L 88.046875 70.867188 L 88.058594 70.648438 L 88.066406 70.433594 Z M 88.074219 69.996094 "/>
</g>
</g>
<g clip-path="url(#clip21)" clip-rule="nonzero">
<g clip-path="url(#clip22)" clip-rule="evenodd">
<path style=" stroke:none;fill-rule:evenodd;fill:rgb(0%,67.45098%,75.686275%);fill-opacity:1;" d="M 59.464844 50.5625 L 130.457031 121.554688 L 130.3125 121.515625 L 130.03125 121.429688 L 129.894531 121.382812 L 129.753906 121.335938 L 129.617188 121.28125 L 129.480469 121.230469 L 129.347656 121.175781 L 129.210938 121.117188 L 129.078125 121.054688 L 128.949219 120.996094 L 128.816406 120.929688 L 128.6875 120.867188 L 128.558594 120.796875 L 128.308594 120.65625 L 128.183594 120.582031 L 128.0625 120.507812 L 127.9375 120.429688 L 127.820312 120.347656 L 127.699219 120.265625 L 127.582031 120.183594 L 127.464844 120.097656 L 127.351562 120.011719 L 127.125 119.832031 L 127.015625 119.742188 L 126.90625 119.648438 L 126.695312 119.453125 L 126.589844 119.351562 L 126.488281 119.253906 L 55.496094 48.261719 L 55.597656 48.359375 L 55.703125 48.460938 L 55.808594 48.558594 L 55.914062 48.652344 L 56.132812 48.839844 L 56.359375 49.019531 L 56.472656 49.105469 L 56.589844 49.191406 L 56.707031 49.273438 L 56.828125 49.355469 L 56.945312 49.4375 L 57.066406 49.515625 L 57.316406 49.664062 L 57.566406 49.804688 L 57.824219 49.9375 L 57.957031 50.003906 L 58.085938 50.0625 L 58.21875 50.125 L 58.351562 50.179688 L 58.488281 50.238281 L 58.898438 50.390625 L 59.039062 50.4375 L 59.320312 50.523438 Z M 59.464844 50.5625 "/>
</g>
</g>
<g clip-path="url(#clip23)" clip-rule="nonzero">
<g clip-path="url(#clip24)" clip-rule="evenodd">
<path style=" stroke:none;fill-rule:evenodd;fill:rgb(0%,67.45098%,75.686275%);fill-opacity:1;" d="M 81.835938 82.550781 L 152.828125 153.546875 L 152.289062 154.539062 L 81.296875 83.546875 Z M 81.835938 82.550781 "/>
</g>
</g>
<g clip-path="url(#clip25)" clip-rule="nonzero">
<g clip-path="url(#clip26)" clip-rule="evenodd">
<path style=" stroke:none;fill-rule:evenodd;fill:rgb(0%,67.45098%,75.686275%);fill-opacity:1;" d="M 81.296875 83.546875 L 152.289062 154.539062 L 152.265625 154.726562 L 152.15625 155.460938 L 152.128906 155.648438 L 152.101562 155.832031 L 152.070312 156.015625 L 152.039062 156.195312 L 151.945312 156.746094 L 151.914062 156.925781 L 151.882812 157.109375 L 151.851562 157.289062 L 151.816406 157.472656 L 151.640625 158.371094 L 151.601562 158.550781 L 151.566406 158.730469 L 151.527344 158.910156 L 151.492188 159.085938 L 151.414062 159.445312 L 151.371094 159.621094 L 151.332031 159.796875 L 151.289062 159.976562 L 151.25 160.152344 L 151.207031 160.328125 L 80.214844 89.335938 L 80.257812 89.160156 L 80.296875 88.984375 L 80.339844 88.804688 L 80.378906 88.628906 L 80.421875 88.449219 L 80.460938 88.273438 L 80.5 88.09375 L 80.535156 87.914062 L 80.574219 87.738281 L 80.609375 87.558594 L 80.683594 87.199219 L 80.789062 86.660156 L 80.824219 86.476562 L 80.855469 86.296875 L 80.890625 86.117188 L 80.921875 85.933594 L 80.953125 85.753906 L 81.015625 85.386719 L 81.078125 85.023438 L 81.105469 84.835938 L 81.136719 84.65625 L 81.164062 84.46875 L 81.246094 83.917969 L 81.273438 83.730469 Z M 81.296875 83.546875 "/>
</g>
</g>
<g clip-path="url(#clip27)" clip-rule="nonzero">
<g clip-path="url(#clip28)" clip-rule="evenodd">
<path style=" stroke:none;fill-rule:evenodd;fill:rgb(0%,67.45098%,75.686275%);fill-opacity:1;" d="M 72.203125 87.976562 L 143.195312 158.96875 L 140.613281 159.570312 L 69.621094 88.578125 Z M 72.203125 87.976562 "/>
</g>
</g>
<g clip-path="url(#clip29)" clip-rule="nonzero">
<g clip-path="url(#clip30)" clip-rule="evenodd">
<path style=" stroke:none;fill-rule:evenodd;fill:rgb(0%,67.45098%,75.686275%);fill-opacity:1;" d="M 80.214844 89.335938 L 151.207031 160.328125 L 151.121094 160.679688 L 150.988281 161.199219 L 150.945312 161.375 L 150.898438 161.550781 L 150.851562 161.722656 L 150.804688 161.898438 L 150.753906 162.070312 L 150.707031 162.242188 L 150.65625 162.417969 L 150.554688 162.761719 L 150.503906 162.9375 L 150.453125 163.109375 L 150.398438 163.28125 L 150.347656 163.453125 L 150.128906 164.140625 L 150.070312 164.3125 L 150.015625 164.484375 L 149.957031 164.65625 L 149.898438 164.824219 L 149.78125 165.167969 L 149.71875 165.335938 L 149.660156 165.507812 L 149.597656 165.679688 L 149.535156 165.847656 L 78.539062 94.855469 L 78.601562 94.683594 L 78.664062 94.515625 L 78.726562 94.34375 L 78.789062 94.175781 L 78.90625 93.832031 L 78.964844 93.664062 L 79.023438 93.492188 L 79.078125 93.320312 L 79.136719 93.148438 L 79.355469 92.460938 L 79.40625 92.289062 L 79.460938 92.117188 L 79.511719 91.945312 L 79.5625 91.769531 L 79.664062 91.425781 L 79.710938 91.25 L 79.761719 91.078125 L 79.808594 90.902344 L 79.859375 90.730469 L 79.90625 90.554688 L 79.949219 90.382812 L 80.039062 90.035156 L 80.085938 89.859375 L 80.171875 89.507812 Z M 80.214844 89.335938 "/>
</g>
</g>
<g clip-path="url(#clip31)" clip-rule="nonzero">
<g clip-path="url(#clip32)" clip-rule="evenodd">
<path style=" stroke:none;fill-rule:evenodd;fill:rgb(0%,67.45098%,75.686275%);fill-opacity:1;" d="M 78.476562 94.933594 L 149.46875 165.925781 L 149.453125 165.9375 L 149.4375 165.945312 L 149.421875 165.949219 L 149.40625 165.957031 L 149.347656 165.96875 L 149.328125 165.96875 L 78.335938 94.976562 L 78.355469 94.972656 L 78.375 94.972656 L 78.414062 94.964844 L 78.429688 94.957031 L 78.445312 94.953125 L 78.460938 94.945312 Z M 78.476562 94.933594 "/>
</g>
</g>
<g clip-path="url(#clip33)" clip-rule="nonzero">
<g clip-path="url(#clip34)" clip-rule="evenodd">
<path style=" stroke:none;fill-rule:evenodd;fill:rgb(0%,67.45098%,75.686275%);fill-opacity:1;" d="M 69.621094 88.578125 L 140.613281 159.570312 L 140.496094 159.597656 L 140.375 159.625 L 140.257812 159.652344 L 140.136719 159.679688 L 140.019531 159.703125 L 139.898438 159.730469 L 139.777344 159.753906 L 139.539062 159.804688 L 139.175781 159.875 L 139.054688 159.894531 L 138.933594 159.917969 L 138.8125 159.9375 L 138.691406 159.960938 L 138.449219 160 L 138.328125 160.023438 L 138.203125 160.039062 L 137.960938 160.078125 L 137.714844 160.113281 L 137.589844 160.132812 L 137.46875 160.148438 L 137.34375 160.164062 L 137.222656 160.179688 L 136.972656 160.210938 L 136.726562 160.242188 L 65.734375 89.25 L 65.855469 89.234375 L 66.105469 89.203125 L 66.226562 89.1875 L 66.476562 89.15625 L 66.597656 89.140625 L 66.722656 89.121094 L 66.84375 89.101562 L 66.96875 89.085938 L 67.210938 89.046875 L 67.335938 89.027344 L 67.699219 88.96875 L 67.820312 88.945312 L 67.941406 88.925781 L 68.183594 88.878906 L 68.304688 88.859375 L 68.546875 88.8125 L 68.664062 88.785156 L 68.90625 88.738281 L 69.023438 88.710938 L 69.144531 88.6875 L 69.265625 88.660156 L 69.5 88.605469 Z M 69.621094 88.578125 "/>
</g>
</g>
<g clip-path="url(#clip35)" clip-rule="nonzero">
<g clip-path="url(#clip36)" clip-rule="evenodd">
<path style=" stroke:none;fill-rule:evenodd;fill:rgb(0%,67.45098%,75.686275%);fill-opacity:1;" d="M 65.734375 89.25 L 136.726562 160.242188 L 136.484375 160.265625 L 136.359375 160.28125 L 136.117188 160.304688 L 135.867188 160.328125 L 135.746094 160.335938 L 135.621094 160.347656 L 135.5 160.355469 L 135.375 160.367188 L 134.625 160.414062 L 134.5 160.417969 L 134.371094 160.425781 L 134.246094 160.429688 L 134.117188 160.4375 L 133.992188 160.441406 L 133.863281 160.445312 L 133.738281 160.449219 L 133.609375 160.453125 L 133.480469 160.453125 L 133.226562 160.460938 L 132.707031 160.460938 L 61.714844 89.46875 L 62.101562 89.46875 L 62.230469 89.464844 L 62.359375 89.464844 L 62.488281 89.460938 L 62.617188 89.460938 L 62.742188 89.457031 L 63 89.449219 L 63.125 89.445312 L 63.253906 89.4375 L 63.378906 89.433594 L 63.507812 89.425781 L 63.632812 89.421875 L 64.382812 89.375 L 64.507812 89.363281 L 64.628906 89.355469 L 64.753906 89.34375 L 64.875 89.335938 L 65 89.320312 L 65.125 89.3125 L 65.367188 89.289062 L 65.492188 89.273438 L 65.609375 89.261719 Z M 65.734375 89.25 "/>
</g>
</g>
<g clip-path="url(#clip37)" clip-rule="nonzero">
<g clip-path="url(#clip38)" clip-rule="evenodd">
<path style=" stroke:none;fill-rule:evenodd;fill:rgb(0%,67.45098%,75.686275%);fill-opacity:1;" d="M 70.5625 94.972656 L 141.554688 165.964844 L 141.539062 165.960938 L 141.527344 165.953125 L 141.511719 165.945312 L 141.5 165.933594 L 141.484375 165.921875 L 70.492188 94.929688 L 70.507812 94.941406 L 70.519531 94.953125 L 70.535156 94.960938 L 70.546875 94.96875 Z M 70.5625 94.972656 "/>
</g>
</g>
<g clip-path="url(#clip39)" clip-rule="nonzero">
<g clip-path="url(#clip40)" clip-rule="evenodd">
<path style=" stroke:none;fill-rule:evenodd;fill:rgb(0%,67.45098%,75.686275%);fill-opacity:1;" d="M 78.542969 94.855469 L 149.539062 165.847656 L 149.515625 165.882812 L 149.507812 165.890625 L 149.492188 165.910156 L 149.46875 165.925781 L 78.476562 94.933594 L 78.5 94.917969 L 78.515625 94.898438 L 78.523438 94.886719 L 78.53125 94.878906 L 78.539062 94.867188 Z M 78.542969 94.855469 "/>
</g>
</g>
<g clip-path="url(#clip41)" clip-rule="nonzero">
<g clip-path="url(#clip42)" clip-rule="evenodd">
<path style=" stroke:none;fill-rule:evenodd;fill:rgb(0%,67.45098%,75.686275%);fill-opacity:1;" d="M 78.335938 94.976562 L 149.328125 165.96875 L 141.621094 165.96875 L 70.628906 94.976562 Z M 78.335938 94.976562 "/>
</g>
</g>
<g clip-path="url(#clip43)" clip-rule="nonzero">
<g clip-path="url(#clip44)" clip-rule="evenodd">
<path style=" stroke:none;fill-rule:evenodd;fill:rgb(0%,67.45098%,75.686275%);fill-opacity:1;" d="M 70.628906 94.976562 L 141.621094 165.96875 L 141.574219 165.96875 L 141.570312 165.964844 L 141.554688 165.964844 L 70.5625 94.972656 L 70.582031 94.972656 L 70.59375 94.976562 Z M 70.628906 94.976562 "/>
</g>
</g>
<g clip-path="url(#clip45)" clip-rule="nonzero">
<g clip-path="url(#clip46)" clip-rule="evenodd">
<path style=" stroke:none;fill-rule:evenodd;fill:rgb(0%,67.45098%,75.686275%);fill-opacity:1;" d="M 61.714844 89.46875 L 132.707031 160.460938 L 132.144531 160.460938 L 132.03125 160.457031 L 131.921875 160.453125 L 131.808594 160.453125 L 131.699219 160.449219 L 131.585938 160.445312 L 131.476562 160.445312 L 131.257812 160.4375 L 131.148438 160.429688 L 130.929688 160.421875 L 130.824219 160.414062 L 130.714844 160.410156 L 130.609375 160.40625 L 130.5 160.398438 L 130.394531 160.390625 L 130.289062 160.386719 L 130.179688 160.378906 L 129.757812 160.347656 L 129.65625 160.335938 L 129.445312 160.320312 L 129.34375 160.308594 L 129.242188 160.300781 L 58.246094 89.308594 L 58.351562 89.316406 L 58.453125 89.328125 L 58.558594 89.335938 L 58.660156 89.34375 L 58.765625 89.355469 L 59.292969 89.394531 L 59.402344 89.398438 L 59.613281 89.414062 L 59.832031 89.421875 L 60.046875 89.433594 L 60.15625 89.4375 L 60.265625 89.445312 L 60.375 89.445312 L 60.59375 89.453125 L 60.707031 89.457031 L 60.816406 89.460938 L 60.925781 89.460938 L 61.039062 89.464844 L 61.152344 89.464844 L 61.375 89.46875 Z M 61.714844 89.46875 "/>
</g>
</g>
<g clip-path="url(#clip47)" clip-rule="nonzero">
<g clip-path="url(#clip48)" clip-rule="evenodd">
<path style=" stroke:none;fill-rule:evenodd;fill:rgb(0%,67.45098%,75.686275%);fill-opacity:1;" d="M 58.246094 89.308594 L 129.242188 160.300781 L 129.03125 160.28125 L 128.820312 160.257812 L 128.71875 160.246094 L 128.507812 160.222656 L 128.296875 160.195312 L 128.191406 160.179688 L 128.085938 160.167969 L 127.875 160.136719 L 127.769531 160.125 L 127.453125 160.078125 L 127.242188 160.042969 L 127.136719 160.027344 L 126.925781 159.992188 L 126.820312 159.972656 L 126.710938 159.953125 L 126.605469 159.9375 L 126.183594 159.859375 L 126.078125 159.835938 L 125.96875 159.816406 L 125.863281 159.796875 L 54.871094 88.804688 L 55.082031 88.84375 L 55.191406 88.867188 L 55.613281 88.945312 L 55.71875 88.960938 L 55.933594 89 L 56.039062 89.015625 L 56.144531 89.035156 L 56.355469 89.066406 L 56.460938 89.085938 L 56.777344 89.132812 L 56.988281 89.160156 L 57.09375 89.175781 L 57.199219 89.1875 L 57.304688 89.203125 L 57.515625 89.226562 L 57.617188 89.242188 L 57.828125 89.265625 L 57.933594 89.273438 L 58.039062 89.289062 Z M 58.246094 89.308594 "/>
</g>
</g>
<g clip-path="url(#clip49)" clip-rule="nonzero">
<g clip-path="url(#clip50)" clip-rule="evenodd">
<path style=" stroke:none;fill-rule:evenodd;fill:rgb(0%,67.45098%,75.686275%);fill-opacity:1;" d="M 54.871094 88.804688 L 125.863281 159.796875 L 124.355469 159.496094 L 53.363281 88.503906 Z M 54.871094 88.804688 "/>
</g>
</g>
<g clip-path="url(#clip51)" clip-rule="nonzero">
<g clip-path="url(#clip52)" clip-rule="evenodd">
<path style=" stroke:none;fill-rule:evenodd;fill:rgb(0%,67.45098%,75.686275%);fill-opacity:1;" d="M 53.363281 88.503906 L 124.355469 159.496094 L 123.976562 160.984375 L 52.984375 89.992188 Z M 53.363281 88.503906 "/>
</g>
</g>
<g clip-path="url(#clip53)" clip-rule="nonzero">
<g clip-path="url(#clip54)" clip-rule="evenodd">
<path style=" stroke:none;fill-rule:evenodd;fill:rgb(0%,67.45098%,75.686275%);fill-opacity:1;" d="M 37.25 77.257812 L 108.242188 148.25 L 107.402344 148.195312 L 36.410156 77.203125 Z M 37.25 77.257812 "/>
</g>
</g>
<g clip-path="url(#clip55)" clip-rule="nonzero">
<g clip-path="url(#clip56)" clip-rule="evenodd">
<path style=" stroke:none;fill-rule:evenodd;fill:rgb(0%,67.45098%,75.686275%);fill-opacity:1;" d="M 36.410156 77.203125 L 107.402344 148.195312 L 107.269531 148.1875 L 107.011719 148.171875 L 106.882812 148.160156 L 106.761719 148.148438 L 106.640625 148.140625 L 106.398438 148.117188 L 106.171875 148.09375 L 106.0625 148.078125 L 105.953125 148.066406 L 105.847656 148.054688 L 105.742188 148.039062 L 105.640625 148.023438 L 105.542969 148.007812 L 34.550781 77.015625 L 34.648438 77.03125 L 34.75 77.046875 L 34.855469 77.058594 L 34.960938 77.074219 L 35.070312 77.085938 L 35.179688 77.101562 L 35.40625 77.125 L 35.527344 77.136719 L 35.644531 77.148438 L 35.769531 77.15625 L 36.019531 77.179688 L 36.277344 77.195312 Z M 36.410156 77.203125 "/>
</g>
</g>
<g clip-path="url(#clip57)" clip-rule="nonzero">
<g clip-path="url(#clip58)" clip-rule="evenodd">
<path style=" stroke:none;fill-rule:evenodd;fill:rgb(0%,67.45098%,75.686275%);fill-opacity:1;" d="M 33.398438 76.742188 L 104.390625 147.738281 L 104.25 147.679688 L 104.109375 147.613281 L 103.96875 147.542969 L 103.835938 147.46875 L 103.703125 147.390625 L 103.574219 147.304688 L 103.445312 147.214844 L 103.324219 147.121094 L 103.203125 147.023438 L 103.085938 146.921875 L 32.09375 75.929688 L 32.210938 76.03125 L 32.332031 76.128906 L 32.457031 76.222656 L 32.582031 76.3125 L 32.710938 76.398438 L 32.839844 76.476562 L 32.976562 76.550781 L 33.113281 76.621094 L 33.257812 76.683594 Z M 33.398438 76.742188 "/>
</g>
</g>
<g clip-path="url(#clip59)" clip-rule="nonzero">
<g clip-path="url(#clip60)" clip-rule="evenodd">
<path style=" stroke:none;fill-rule:evenodd;fill:rgb(0%,67.45098%,75.686275%);fill-opacity:1;" d="M 51.417969 94.933594 L 122.410156 165.925781 L 122.398438 165.9375 L 122.382812 165.945312 L 122.363281 165.949219 L 122.347656 165.957031 L 122.289062 165.96875 L 122.269531 165.96875 L 51.277344 94.976562 L 51.296875 94.972656 L 51.316406 94.972656 L 51.355469 94.964844 L 51.371094 94.957031 L 51.386719 94.953125 L 51.402344 94.945312 Z M 51.417969 94.933594 "/>
</g>
</g>
<g clip-path="url(#clip61)" clip-rule="nonzero">
<g clip-path="url(#clip62)" clip-rule="evenodd">
<path style=" stroke:none;fill-rule:evenodd;fill:rgb(0%,67.45098%,75.686275%);fill-opacity:1;" d="M 51.277344 94.976562 L 122.269531 165.96875 L 114.566406 165.96875 L 43.574219 94.976562 Z M 51.277344 94.976562 "/>
</g>
</g>
<g clip-path="url(#clip63)" clip-rule="nonzero">
<g clip-path="url(#clip64)" clip-rule="evenodd">
<path style=" stroke:none;fill-rule:evenodd;fill:rgb(0%,67.45098%,75.686275%);fill-opacity:1;" d="M 43.574219 94.976562 L 114.566406 165.96875 L 114.546875 165.96875 L 114.535156 165.964844 L 114.519531 165.964844 L 114.511719 165.960938 L 114.5 165.960938 L 43.507812 94.96875 L 43.519531 94.96875 L 43.535156 94.972656 L 43.542969 94.972656 L 43.550781 94.976562 Z M 43.574219 94.976562 "/>
</g>
</g>
<g clip-path="url(#clip65)" clip-rule="nonzero">
<g clip-path="url(#clip66)" clip-rule="evenodd">
<path style=" stroke:none;fill-rule:evenodd;fill:rgb(0%,67.45098%,75.686275%);fill-opacity:1;" d="M 43.507812 94.96875 L 114.5 165.960938 L 114.480469 165.953125 L 114.433594 165.929688 L 43.429688 94.925781 L 43.441406 94.9375 L 43.488281 94.960938 Z M 43.507812 94.96875 "/>
</g>
</g>
<g clip-path="url(#clip67)" clip-rule="nonzero">
<g clip-path="url(#clip68)" clip-rule="evenodd">
<path style=" stroke:none;fill-rule:evenodd;fill:rgb(0%,67.45098%,75.686275%);fill-opacity:1;" d="M 45.617188 85.429688 L 116.609375 156.421875 L 115.667969 155.828125 L 44.675781 84.835938 Z M 45.617188 85.429688 "/>
</g>
</g>
<g clip-path="url(#clip69)" clip-rule="nonzero">
<g clip-path="url(#clip70)" clip-rule="evenodd">
<path style=" stroke:none;fill-rule:evenodd;fill:rgb(0%,67.45098%,75.686275%);fill-opacity:1;" d="M 44.675781 84.835938 L 115.667969 155.828125 L 115.527344 155.742188 L 115.390625 155.652344 L 115.25 155.5625 L 115.113281 155.472656 L 114.976562 155.378906 L 114.84375 155.289062 L 114.707031 155.195312 L 114.308594 154.914062 L 114.179688 154.820312 L 114.046875 154.722656 L 113.789062 154.527344 L 113.664062 154.429688 L 113.535156 154.332031 L 113.410156 154.230469 L 113.285156 154.132812 L 113.164062 154.03125 L 113.039062 153.929688 L 112.796875 153.726562 L 112.675781 153.621094 L 112.558594 153.519531 L 112.4375 153.414062 L 41.445312 82.421875 L 41.5625 82.527344 L 41.683594 82.628906 L 41.804688 82.734375 L 42.167969 83.039062 L 42.292969 83.140625 L 42.417969 83.238281 L 42.542969 83.339844 L 42.671875 83.4375 L 42.796875 83.535156 L 43.054688 83.730469 L 43.183594 83.824219 L 43.316406 83.921875 L 43.847656 84.296875 L 44.121094 84.476562 L 44.257812 84.570312 L 44.398438 84.660156 L 44.535156 84.75 Z M 44.675781 84.835938 "/>
</g>
</g>
<g clip-path="url(#clip71)" clip-rule="nonzero">
<g clip-path="url(#clip72)" clip-rule="evenodd">
<path style=" stroke:none;fill-rule:evenodd;fill:rgb(0%,67.45098%,75.686275%);fill-opacity:1;" d="M 29.003906 66.867188 L 99.996094 137.859375 L 99.992188 137.859375 L 29 66.867188 Z M 29.003906 66.867188 "/>
</g>
</g>
<g clip-path="url(#clip73)" clip-rule="nonzero">
<g clip-path="url(#clip74)" clip-rule="evenodd">
<path style=" stroke:none;fill-rule:evenodd;fill:rgb(0%,67.45098%,75.686275%);fill-opacity:1;" d="M 34.550781 77.015625 L 105.542969 148.007812 L 105.457031 147.996094 L 105.367188 147.980469 L 105.203125 147.949219 L 104.96875 147.902344 L 104.898438 147.882812 L 104.757812 147.851562 L 104.691406 147.832031 L 104.628906 147.816406 L 104.566406 147.796875 L 104.507812 147.777344 L 104.398438 147.738281 L 33.40625 76.742188 L 33.460938 76.765625 L 33.515625 76.785156 L 33.574219 76.804688 L 33.636719 76.820312 L 33.699219 76.839844 L 33.765625 76.859375 L 33.90625 76.890625 L 33.976562 76.910156 L 34.210938 76.957031 L 34.375 76.988281 L 34.460938 77 Z M 34.550781 77.015625 "/>
</g>
</g>
<g clip-path="url(#clip75)" clip-rule="nonzero">
<g clip-path="url(#clip76)" clip-rule="evenodd">
<path style=" stroke:none;fill-rule:evenodd;fill:rgb(0%,67.45098%,75.686275%);fill-opacity:1;" d="M 33.40625 76.742188 L 104.398438 147.738281 L 104.390625 147.738281 L 33.398438 76.742188 Z M 33.40625 76.742188 "/>
</g>
</g>
<g clip-path="url(#clip77)" clip-rule="nonzero">
<g clip-path="url(#clip78)" clip-rule="evenodd">
<path style=" stroke:none;fill-rule:evenodd;fill:rgb(0%,67.45098%,75.686275%);fill-opacity:1;" d="M 52.285156 92.488281 L 123.277344 163.480469 L 123.257812 163.554688 L 123.210938 163.695312 L 123.164062 163.84375 L 123.140625 163.914062 L 123.09375 164.0625 L 123.070312 164.132812 L 123 164.355469 L 122.972656 164.429688 L 122.921875 164.574219 L 122.875 164.722656 L 122.820312 164.871094 L 122.796875 164.945312 L 122.773438 165.023438 L 122.664062 165.320312 L 122.613281 165.46875 L 122.585938 165.546875 L 122.554688 165.621094 L 122.53125 165.695312 L 122.5 165.773438 L 122.472656 165.847656 L 51.480469 94.855469 L 51.535156 94.703125 L 51.589844 94.554688 L 51.617188 94.476562 L 51.699219 94.253906 L 51.753906 94.101562 L 51.777344 94.027344 L 51.832031 93.878906 L 51.855469 93.804688 L 51.882812 93.730469 L 51.929688 93.582031 L 51.957031 93.507812 L 52.003906 93.363281 L 52.03125 93.289062 L 52.078125 93.140625 L 52.101562 93.070312 L 52.148438 92.921875 L 52.171875 92.851562 L 52.21875 92.703125 L 52.242188 92.632812 L 52.265625 92.558594 Z M 52.285156 92.488281 "/>
</g>
</g>
<g clip-path="url(#clip79)" clip-rule="nonzero">
<g clip-path="url(#clip80)" clip-rule="evenodd">
<path style=" stroke:none;fill-rule:evenodd;fill:rgb(0%,67.45098%,75.686275%);fill-opacity:1;" d="M 51.480469 94.855469 L 122.472656 165.847656 L 122.46875 165.859375 L 122.460938 165.871094 L 122.457031 165.882812 L 122.449219 165.890625 L 122.441406 165.902344 L 122.429688 165.910156 L 122.421875 165.917969 L 122.410156 165.925781 L 51.417969 94.933594 L 51.429688 94.925781 L 51.4375 94.917969 L 51.449219 94.910156 L 51.457031 94.898438 L 51.464844 94.890625 L 51.46875 94.878906 L 51.476562 94.867188 Z M 51.480469 94.855469 "/>
</g>
</g>
<g clip-path="url(#clip81)" clip-rule="nonzero">
<g clip-path="url(#clip82)" clip-rule="evenodd">
<path style=" stroke:none;fill-rule:evenodd;fill:rgb(0%,67.45098%,75.686275%);fill-opacity:1;" d="M 52.984375 89.992188 L 123.976562 160.984375 L 123.957031 161.070312 L 123.933594 161.152344 L 123.914062 161.234375 L 123.890625 161.316406 L 123.871094 161.398438 L 123.847656 161.480469 L 123.828125 161.5625 L 123.804688 161.640625 L 123.785156 161.722656 L 123.761719 161.800781 L 123.742188 161.882812 L 123.71875 161.960938 L 123.65625 162.195312 L 123.609375 162.351562 L 123.566406 162.507812 L 123.546875 162.585938 L 123.523438 162.660156 L 123.5 162.738281 L 123.480469 162.8125 L 123.457031 162.890625 L 123.433594 162.964844 L 123.414062 163.039062 L 123.34375 163.261719 L 123.324219 163.335938 L 123.300781 163.40625 L 123.277344 163.480469 L 52.285156 92.488281 L 52.308594 92.414062 L 52.332031 92.34375 L 52.351562 92.269531 L 52.421875 92.046875 L 52.441406 91.972656 L 52.464844 91.898438 L 52.488281 91.820312 L 52.507812 91.746094 L 52.53125 91.667969 L 52.574219 91.515625 L 52.597656 91.4375 L 52.617188 91.359375 L 52.640625 91.28125 L 52.660156 91.203125 L 52.707031 91.046875 L 52.726562 90.96875 L 52.75 90.890625 L 52.769531 90.808594 L 52.792969 90.730469 L 52.835938 90.570312 L 52.855469 90.488281 L 52.878906 90.40625 L 52.898438 90.324219 L 52.921875 90.242188 L 52.960938 90.078125 Z M 52.984375 89.992188 "/>
</g>
</g>
<g clip-path="url(#clip83)" clip-rule="nonzero">
<g clip-path="url(#clip84)" clip-rule="evenodd">
<path style=" stroke:none;fill-rule:evenodd;fill:rgb(0%,67.45098%,75.686275%);fill-opacity:1;" d="M 86.5 76.621094 L 157.492188 147.613281 L 157.390625 147.820312 L 157.285156 148.023438 L 157.175781 148.222656 L 157.066406 148.425781 L 156.832031 148.824219 L 156.710938 149.019531 L 156.589844 149.21875 L 156.464844 149.414062 L 156.335938 149.605469 L 156.203125 149.800781 L 156.070312 149.992188 L 155.933594 150.179688 L 155.792969 150.371094 L 155.503906 150.746094 L 155.207031 151.113281 L 155.054688 151.296875 L 154.898438 151.476562 L 154.738281 151.660156 L 154.578125 151.835938 L 154.414062 152.015625 L 154.25 152.191406 L 154.078125 152.363281 L 153.910156 152.539062 L 153.734375 152.710938 L 153.558594 152.878906 L 153.199219 153.214844 L 153.015625 153.382812 L 152.828125 153.546875 L 81.835938 82.550781 L 82.023438 82.386719 L 82.207031 82.222656 L 82.566406 81.886719 L 82.742188 81.714844 L 82.914062 81.546875 L 83.085938 81.371094 L 83.253906 81.195312 L 83.421875 81.023438 L 83.585938 80.84375 L 83.90625 80.484375 L 84.0625 80.304688 L 84.214844 80.121094 L 84.511719 79.753906 L 84.800781 79.378906 L 84.941406 79.1875 L 85.078125 79 L 85.210938 78.804688 L 85.34375 78.613281 L 85.472656 78.417969 L 85.597656 78.226562 L 85.71875 78.027344 L 85.839844 77.832031 L 85.957031 77.632812 L 86.070312 77.429688 L 86.183594 77.230469 L 86.292969 77.027344 L 86.398438 76.824219 Z M 86.5 76.621094 "/>
</g>
</g>
<g clip-path="url(#clip85)" clip-rule="nonzero">
<g clip-path="url(#clip86)" clip-rule="evenodd">
<path style=" stroke:none;fill-rule:evenodd;fill:rgb(0%,67.45098%,75.686275%);fill-opacity:1;" d="M 61.804688 33.023438 C 64.269531 33.023438 66.503906 34.023438 68.117188 35.640625 C 69.734375 37.253906 70.730469 39.484375 70.730469 41.949219 C 70.730469 44.414062 69.734375 46.644531 68.117188 48.261719 C 66.996094 49.382812 65.578125 50.207031 63.992188 50.605469 C 69.761719 51.039062 76.09375 53.09375 80.84375 56.675781 C 83.152344 58.421875 85.082031 60.527344 86.363281 62.988281 C 87.75 63.015625 88.902344 61.589844 90.125 60.074219 C 91.992188 57.757812 93.976562 55.292969 97.480469 55.292969 C 98.320312 55.292969 99 55.972656 99 56.8125 C 99 57.652344 98.320312 58.332031 97.480469 58.332031 C 95.421875 58.332031 93.90625 60.207031 92.484375 61.972656 C 90.984375 63.835938 89.554688 65.609375 87.550781 66.015625 C 87.890625 67.269531 88.074219 68.597656 88.074219 69.996094 C 88.074219 72.328125 87.515625 74.558594 86.5 76.621094 C 85.421875 78.804688 83.832031 80.808594 81.835938 82.550781 L 81.296875 83.546875 C 81.023438 85.523438 80.667969 87.457031 80.214844 89.335938 C 79.765625 91.203125 79.210938 93.042969 78.539062 94.855469 L 78.542969 94.855469 C 78.53125 94.886719 78.507812 94.914062 78.476562 94.933594 C 78.4375 94.960938 78.390625 94.976562 78.335938 94.976562 L 70.628906 94.976562 C 70.589844 94.976562 70.566406 94.972656 70.5625 94.972656 C 70.523438 94.960938 70.484375 94.929688 70.457031 94.890625 C 70.429688 94.855469 70.414062 94.816406 70.414062 94.773438 C 70.414062 94.742188 70.417969 94.722656 70.417969 94.71875 L 70.425781 94.703125 C 70.660156 93.910156 70.855469 93.222656 71.019531 92.621094 C 71.191406 91.992188 71.371094 91.296875 71.558594 90.546875 L 72.203125 87.976562 L 69.621094 88.578125 C 68.355469 88.875 67.058594 89.097656 65.734375 89.25 C 64.4375 89.394531 63.097656 89.46875 61.714844 89.46875 C 60.503906 89.46875 59.347656 89.414062 58.246094 89.308594 C 57.132812 89.199219 56.007812 89.03125 54.871094 88.804688 L 53.363281 88.503906 L 52.984375 89.992188 C 52.757812 90.878906 52.523438 91.714844 52.285156 92.488281 C 52.046875 93.257812 51.78125 94.046875 51.480469 94.855469 C 51.46875 94.886719 51.445312 94.914062 51.417969 94.933594 C 51.382812 94.960938 51.332031 94.976562 51.277344 94.976562 L 43.574219 94.976562 C 43.542969 94.976562 43.523438 94.972656 43.507812 94.96875 C 43.460938 94.953125 43.421875 94.925781 43.394531 94.890625 C 43.371094 94.859375 43.355469 94.816406 43.355469 94.769531 C 43.355469 94.746094 43.359375 94.726562 43.363281 94.710938 C 43.769531 93.355469 44.144531 91.984375 44.488281 90.59375 C 44.816406 89.273438 45.117188 87.914062 45.398438 86.519531 L 45.617188 85.429688 L 44.675781 84.835938 C 43.179688 83.898438 41.828125 82.835938 40.648438 81.675781 C 39.488281 80.53125 38.492188 79.292969 37.6875 77.976562 L 37.25 77.257812 L 36.410156 77.203125 C 35.699219 77.160156 35.070312 77.097656 34.550781 77.015625 C 34.074219 76.941406 33.683594 76.851562 33.40625 76.742188 L 33.398438 76.742188 C 31.84375 76.148438 30.828125 74.601562 30.164062 72.84375 C 29.421875 70.890625 29.125 68.675781 29.003906 67.023438 L 29.003906 66.867188 L 29 66.867188 C 29.019531 66.675781 29.105469 66.496094 29.234375 66.363281 C 29.378906 66.214844 29.578125 66.117188 29.800781 66.101562 C 30.828125 66.03125 31.808594 65.878906 32.75 65.644531 C 33.683594 65.414062 34.578125 65.105469 35.4375 64.726562 L 36.09375 64.4375 L 36.320312 63.753906 C 36.933594 61.914062 37.859375 60.195312 39.109375 58.648438 C 40.316406 57.152344 41.828125 55.820312 43.664062 54.6875 L 45.269531 53.695312 L 44.042969 52.261719 C 43.082031 51.132812 42.226562 49.78125 41.574219 48.398438 C 41.25 47.710938 40.976562 47.019531 40.773438 46.355469 C 42.726562 46.421875 44.652344 46.765625 46.453125 47.269531 C 49.585938 48.148438 52.3125 49.492188 54.144531 50.675781 L 55.226562 50.921875 C 56.199219 50.796875 57.238281 50.695312 58.34375 50.625 C 58.710938 50.597656 59.082031 50.578125 59.464844 50.5625 C 57.941406 50.148438 56.582031 49.34375 55.496094 48.261719 C 53.882812 46.644531 52.882812 44.414062 52.882812 41.949219 C 52.882812 39.484375 53.882812 37.253906 55.496094 35.640625 C 57.109375 34.023438 59.34375 33.023438 61.808594 33.023438 Z M 61.804688 33.023438 "/>
</g>
</g>
<path style=" stroke:none;fill-rule:nonzero;fill:rgb(36.470588%,25.098039%,21.568627%);fill-opacity:1;" d="M 85.570312 62.820312 C 84.796875 62.503906 83.914062 62.875 83.601562 63.648438 C 83.285156 64.421875 83.65625 65.304688 84.429688 65.621094 C 88.277344 67.191406 90.304688 64.675781 92.484375 61.972656 C 93.910156 60.207031 95.421875 58.332031 97.480469 58.332031 C 98.320312 58.332031 99 57.652344 99 56.8125 C 99 55.972656 98.320312 55.292969 97.480469 55.292969 C 93.976562 55.292969 91.992188 57.757812 90.125 60.074219 C 88.675781 61.867188 87.332031 63.539062 85.570312 62.820312 Z M 85.570312 62.820312 "/>
<path style=" stroke:none;fill-rule:evenodd;fill:rgb(55.294118%,43.137255%,38.823529%);fill-opacity:1;" d="M 55.226562 50.921875 C 56.199219 50.796875 57.238281 50.695312 58.34375 50.621094 C 59.398438 50.554688 60.515625 50.519531 61.714844 50.519531 C 68.042969 50.519531 75.457031 52.617188 80.84375 56.675781 C 85.113281 59.898438 88.074219 64.363281 88.074219 69.996094 C 88.074219 72.328125 87.515625 74.558594 86.5 76.621094 C 85.421875 78.804688 83.832031 80.808594 81.835938 82.550781 L 81.296875 83.546875 C 81.023438 85.523438 80.667969 87.457031 80.214844 89.335938 C 79.765625 91.203125 79.210938 93.042969 78.539062 94.855469 L 78.542969 94.855469 C 78.53125 94.886719 78.507812 94.914062 78.476562 94.933594 C 78.4375 94.960938 78.390625 94.976562 78.335938 94.976562 L 70.628906 94.976562 C 70.589844 94.976562 70.566406 94.972656 70.5625 94.972656 C 70.523438 94.960938 70.488281 94.929688 70.457031 94.890625 C 70.429688 94.855469 70.414062 94.816406 70.414062 94.773438 C 70.414062 94.742188 70.417969 94.722656 70.417969 94.71875 L 70.425781 94.703125 C 70.660156 93.910156 70.855469 93.222656 71.019531 92.621094 C 71.191406 91.992188 71.371094 91.296875 71.558594 90.546875 L 72.203125 87.976562 L 69.621094 88.578125 C 68.355469 88.875 67.058594 89.097656 65.734375 89.25 C 64.4375 89.394531 63.097656 89.46875 61.714844 89.46875 C 60.503906 89.46875 59.347656 89.414062 58.246094 89.308594 C 57.132812 89.199219 56.007812 89.03125 54.871094 88.804688 L 53.363281 88.503906 L 52.984375 89.992188 C 52.757812 90.878906 52.527344 91.714844 52.285156 92.488281 C 52.046875 93.257812 51.78125 94.046875 51.480469 94.855469 C 51.46875 94.886719 51.445312 94.914062 51.417969 94.933594 C 51.382812 94.960938 51.332031 94.976562 51.277344 94.976562 L 43.574219 94.976562 C 43.542969 94.976562 43.523438 94.972656 43.507812 94.96875 C 43.460938 94.953125 43.421875 94.925781 43.394531 94.890625 C 43.371094 94.859375 43.355469 94.816406 43.355469 94.769531 C 43.355469 94.746094 43.359375 94.726562 43.363281 94.710938 C 43.769531 93.355469 44.144531 91.984375 44.488281 90.59375 C 44.816406 89.273438 45.117188 87.914062 45.398438 86.519531 L 45.617188 85.429688 L 44.675781 84.835938 C 43.179688 83.898438 41.828125 82.835938 40.648438 81.675781 C 39.488281 80.53125 38.492188 79.292969 37.6875 77.976562 L 37.25 77.257812 L 36.410156 77.203125 C 35.699219 77.160156 35.070312 77.097656 34.550781 77.015625 C 34.078125 76.941406 33.683594 76.851562 33.40625 76.742188 L 33.398438 76.742188 C 31.84375 76.148438 30.828125 74.601562 30.164062 72.84375 C 29.421875 70.890625 29.125 68.675781 29.003906 67.023438 L 29.003906 66.867188 L 29 66.867188 C 29.019531 66.675781 29.105469 66.496094 29.234375 66.363281 C 29.378906 66.214844 29.578125 66.117188 29.800781 66.101562 C 30.828125 66.03125 31.808594 65.878906 32.75 65.644531 C 33.683594 65.414062 34.578125 65.105469 35.4375 64.726562 L 36.09375 64.4375 L 36.320312 63.753906 C 36.933594 61.914062 37.859375 60.195312 39.109375 58.648438 C 40.316406 57.152344 41.828125 55.820312 43.664062 54.6875 L 45.269531 53.695312 L 44.042969 52.261719 C 43.082031 51.132812 42.226562 49.78125 41.574219 48.398438 C 41.25 47.710938 40.976562 47.019531 40.773438 46.355469 C 42.726562 46.421875 44.652344 46.765625 46.457031 47.269531 C 49.585938 48.148438 52.3125 49.492188 54.144531 50.675781 Z M 55.226562 50.921875 "/>
<path style=" stroke:none;fill-rule:evenodd;fill:rgb(99.215686%,84.705882%,20.784314%);fill-opacity:1;" d="M 61.804688 33.023438 C 64.269531 33.023438 66.503906 34.023438 68.117188 35.640625 C 69.734375 37.253906 70.730469 39.484375 70.730469 41.949219 C 70.730469 44.414062 69.734375 46.644531 68.117188 48.261719 C 66.503906 49.875 64.269531 50.875 61.804688 50.875 C 59.34375 50.875 57.109375 49.875 55.496094 48.261719 C 53.882812 46.644531 52.882812 44.414062 52.882812 41.949219 C 52.882812 39.484375 53.882812 37.253906 55.496094 35.640625 C 57.109375 34.023438 59.34375 33.023438 61.804688 33.023438 Z M 61.804688 33.023438 "/>
<path style=" stroke:none;fill-rule:evenodd;fill:rgb(96.078431%,49.803922%,9.019608%);fill-opacity:1;" d="M 64.308594 40.4375 C 63.84375 40.59375 63.34375 40.339844 63.1875 39.875 C 63.070312 39.535156 62.640625 39.136719 61.804688 39.136719 C 61.15625 39.136719 60.773438 39.554688 60.734375 39.972656 C 60.679688 40.488281 61.148438 40.902344 61.988281 41.078125 C 64 41.5 64.773438 42.90625 64.648438 44.109375 C 64.535156 45.203125 63.746094 46.082031 62.695312 46.402344 L 62.695312 46.945312 C 62.695312 47.4375 62.296875 47.835938 61.804688 47.835938 C 61.316406 47.835938 60.917969 47.4375 60.917969 46.945312 L 60.917969 46.433594 C 59.699219 46.148438 58.988281 45.324219 58.742188 44.585938 C 58.585938 44.121094 58.839844 43.617188 59.304688 43.464844 C 59.769531 43.304688 60.273438 43.558594 60.429688 44.023438 C 60.550781 44.390625 61.027344 44.761719 61.804688 44.761719 C 62.457031 44.761719 62.839844 44.34375 62.882812 43.925781 C 62.933594 43.410156 62.464844 42.996094 61.625 42.820312 C 59.613281 42.398438 58.839844 40.992188 58.964844 39.789062 C 59.078125 38.695312 59.863281 37.816406 60.917969 37.492188 L 60.917969 36.949219 C 60.917969 36.460938 61.316406 36.0625 61.804688 36.0625 C 62.296875 36.0625 62.695312 36.460938 62.695312 36.949219 L 62.695312 37.46875 C 63.914062 37.75 64.625 38.574219 64.871094 39.3125 C 65.027344 39.777344 64.773438 40.28125 64.308594 40.4375 Z M 64.308594 40.4375 "/>
<path style=" stroke:none;fill-rule:evenodd;fill:rgb(36.470588%,25.098039%,21.568627%);fill-opacity:1;" d="M 56.042969 55.472656 C 55.203125 55.472656 54.523438 56.152344 54.523438 56.992188 C 54.523438 57.828125 55.203125 58.507812 56.042969 58.507812 L 69.714844 58.507812 C 70.554688 58.507812 71.234375 57.828125 71.234375 56.992188 C 71.234375 56.152344 70.554688 55.472656 69.714844 55.472656 Z M 56.042969 55.472656 "/>
<path style=" stroke:none;fill-rule:evenodd;fill:rgb(36.470588%,25.098039%,21.568627%);fill-opacity:1;" d="M 44.46875 63.574219 C 43.539062 63.574219 42.785156 62.820312 42.785156 61.890625 C 42.785156 60.960938 43.539062 60.207031 44.46875 60.207031 C 45.398438 60.207031 46.152344 60.960938 46.152344 61.890625 C 46.152344 62.820312 45.394531 63.574219 44.46875 63.574219 Z M 44.46875 63.574219 "/>
</g>
</svg>
