<?xml version="1.0" encoding="UTF-8"?>
<svg xmlns="http://www.w3.org/2000/svg" xmlns:xlink="http://www.w3.org/1999/xlink" width="164px" height="50px" viewBox="0 0 164 50" version="1.1">
<g id="surface1">
<path style=" stroke:none;fill-rule:nonzero;fill:rgb(90.196078%,90.196078%,90.196078%);fill-opacity:1;" d="M 93.386719 44.246094 C 92.253906 43.644531 90.71875 43.207031 88.789062 43.042969 C 87.109375 42.898438 85.378906 42.921875 83.667969 42.929688 L 62.046875 42.992188 C 60.195312 42.996094 58.417969 43.605469 58.503906 44.332031 C 58.589844 45.050781 60.0625 45.675781 62.046875 45.671875 C 68.378906 45.652344 74.714844 45.632812 81.046875 45.617188 C 82.539062 45.613281 84.035156 45.601562 85.527344 45.601562 C 85.863281 45.605469 86.195312 45.609375 86.53125 45.613281 C 86.613281 45.613281 86.671875 45.613281 86.714844 45.609375 C 86.722656 45.613281 86.730469 45.613281 86.746094 45.613281 C 86.921875 45.632812 87.101562 45.644531 87.277344 45.664062 C 87.214844 45.664062 87.390625 45.703125 87.476562 45.71875 C 87.488281 45.726562 87.515625 45.742188 87.558594 45.769531 C 87.617188 45.8125 87.796875 45.941406 87.804688 45.9375 C 88.074219 46.191406 88.292969 46.457031 88.464844 46.722656 C 88.878906 47.3125 88.96875 47.4375 89.027344 47.992188 C 89.101562 48.691406 90.601562 49.363281 92.566406 49.332031 C 94.421875 49.300781 96.1875 48.742188 96.109375 47.992188 C 95.972656 46.726562 95.386719 45.308594 93.386719 44.246094 Z M 93.386719 44.246094 "/>
<path style=" stroke:none;fill-rule:nonzero;fill:rgb(90.196078%,90.196078%,90.196078%);fill-opacity:1;" d="M 63.316406 47.269531 C 62.910156 46.339844 62.511719 45.40625 62.097656 44.476562 C 61.679688 43.53125 60.820312 42.667969 58.878906 42.046875 C 58.359375 41.882812 57.824219 41.726562 57.28125 41.574219 C 57.09375 41.519531 56.902344 41.464844 56.714844 41.410156 C 56.703125 41.40625 56.695312 41.40625 56.6875 41.402344 C 56.667969 41.394531 56.640625 41.386719 56.609375 41.375 C 55.796875 41.117188 55.015625 40.847656 54.273438 40.558594 C 53.609375 40.304688 52.976562 40.035156 52.375 39.757812 C 52.222656 39.691406 52.074219 39.621094 51.925781 39.550781 C 51.902344 39.539062 51.765625 39.472656 51.675781 39.425781 C 51.59375 39.382812 51.441406 39.304688 51.414062 39.292969 C 51.242188 39.199219 51.074219 39.105469 50.910156 39.011719 C 49.78125 38.375 48.804688 37.699219 47.988281 36.992188 C 47.910156 36.925781 47.832031 36.855469 47.753906 36.78125 C 47.734375 36.761719 47.707031 36.734375 47.671875 36.695312 C 47.507812 36.527344 47.34375 36.355469 47.191406 36.183594 C 46.875 35.816406 46.601562 35.445312 46.371094 35.066406 C 46.257812 34.878906 46.15625 34.691406 46.066406 34.503906 C 46.019531 34.40625 45.972656 34.308594 45.933594 34.210938 C 45.925781 34.195312 45.886719 34.089844 45.863281 34.03125 C 45.847656 33.972656 45.8125 33.867188 45.808594 33.851562 C 45.785156 33.753906 45.761719 33.652344 45.742188 33.554688 C 45.695312 33.335938 45.664062 33.113281 45.648438 32.890625 C 45.621094 32.496094 45.640625 32.101562 45.703125 31.707031 C 45.742188 31.488281 45.792969 31.265625 45.859375 31.046875 C 45.863281 31.03125 45.867188 31.023438 45.867188 31.011719 C 45.871094 31.003906 45.875 30.992188 45.882812 30.976562 C 45.929688 30.855469 45.980469 30.734375 46.035156 30.613281 C 46.25 30.152344 46.523438 29.695312 46.863281 29.246094 C 47.023438 29.03125 47.199219 28.820312 47.386719 28.613281 C 47.46875 28.519531 47.558594 28.425781 47.644531 28.335938 C 47.640625 28.339844 47.90625 28.082031 47.910156 28.074219 C 48.972656 27.125 50.707031 26.261719 50.710938 25.183594 C 50.710938 24.453125 49.082031 23.753906 47.167969 23.789062 C 45.1875 23.816406 43.621094 24.433594 43.628906 25.183594 C 43.628906 25.199219 43.628906 25.214844 43.628906 25.226562 C 43.609375 25.25 43.59375 25.269531 43.582031 25.285156 C 43.375 25.457031 43.121094 25.617188 42.894531 25.78125 C 42.273438 26.238281 41.742188 26.707031 41.238281 27.183594 C 40.410156 27.957031 39.777344 28.761719 39.347656 29.578125 C 38.414062 31.375 38.339844 33.222656 39.136719 35.027344 C 40.507812 38.195312 45.035156 41.226562 51.332031 43.261719 C 51.875 43.441406 52.4375 43.609375 53 43.777344 C 53.234375 43.847656 53.46875 43.914062 53.707031 43.984375 C 53.820312 44.015625 54.285156 44.152344 54.078125 44.085938 C 54.519531 44.226562 54.703125 44.300781 54.816406 44.402344 C 54.832031 44.429688 54.855469 44.460938 54.882812 44.503906 C 54.964844 44.621094 55.039062 44.742188 55.101562 44.859375 C 55.648438 45.902344 56.03125 46.964844 56.488281 48.011719 C 56.800781 48.734375 59.148438 49.203125 60.84375 48.988281 C 62.816406 48.734375 63.65625 48.042969 63.316406 47.269531 Z M 63.316406 47.269531 "/>
<path style=" stroke:none;fill-rule:nonzero;fill:rgb(24.705882%,23.921569%,33.72549%);fill-opacity:1;" d="M 93.746094 49.976562 C 90.648438 49.980469 88.128906 49.03125 88.113281 47.859375 L 88.113281 46.332031 C 83.886719 46.511719 69.402344 46.46875 65.253906 46.21875 L 65.253906 47.800781 C 65.230469 48.96875 62.714844 49.914062 59.621094 49.914062 C 56.527344 49.914062 54.015625 48.96875 53.992188 47.800781 L 53.992188 44.691406 C 42.542969 42.285156 35.429688 37.722656 35.398438 32.769531 C 35.398438 28.59375 40.398438 24.703125 49.113281 22.085938 C 54.777344 20.378906 61.664062 19.355469 68.882812 19.140625 C 69.863281 19.113281 70.847656 19.097656 71.8125 19.097656 C 75.210938 19.097656 90.539062 19.296875 94.386719 19.714844 L 103.15625 16.421875 C 103.421875 16.320312 103.820312 16.289062 104.164062 16.34375 C 104.511719 16.398438 104.738281 16.527344 104.734375 16.667969 L 104.734375 17.191406 L 106.445312 16.550781 C 106.707031 16.449219 107.105469 16.421875 107.449219 16.476562 C 107.796875 16.527344 108.027344 16.65625 108.023438 16.796875 L 108.023438 22.648438 C 116.960938 25.699219 121.285156 30.234375 119.546875 34.742188 C 117.8125 39.246094 110.242188 43.125 99.375 45.082031 L 99.375 47.859375 C 99.359375 49.03125 96.839844 49.980469 93.746094 49.976562 Z M 88.558594 46.140625 L 88.558594 47.859375 C 88.582031 48.9375 90.894531 49.808594 93.746094 49.808594 C 96.59375 49.808594 98.910156 48.9375 98.933594 47.859375 L 98.933594 44.976562 L 99.058594 44.953125 C 105.0625 43.875 110.160156 42.191406 113.785156 40.082031 C 123.324219 34.523438 120.722656 27.160156 107.652344 22.75 L 107.578125 22.722656 L 107.578125 16.796875 C 107.582031 16.722656 107.464844 16.65625 107.28125 16.628906 C 107.101562 16.601562 106.894531 16.617188 106.757812 16.667969 L 104.292969 17.59375 L 104.292969 16.667969 C 104.296875 16.59375 104.179688 16.527344 103.996094 16.5 C 103.816406 16.472656 103.605469 16.488281 103.46875 16.539062 L 94.511719 19.902344 L 94.382812 19.890625 C 90.808594 19.464844 75.234375 19.265625 71.8125 19.265625 C 70.859375 19.265625 69.886719 19.277344 68.917969 19.308594 C 61.785156 19.519531 54.984375 20.53125 49.386719 22.21875 C 40.78125 24.800781 35.84375 28.644531 35.84375 32.769531 C 35.871094 37.679688 42.949219 42.199219 54.320312 44.570312 L 54.433594 44.59375 L 54.433594 47.800781 C 54.457031 48.878906 56.773438 49.746094 59.621094 49.746094 C 62.46875 49.746094 64.785156 48.878906 64.808594 47.800781 L 64.808594 46.015625 L 65.070312 46.035156 C 68.800781 46.300781 84.511719 46.34375 88.308594 46.15625 Z M 88.558594 46.140625 "/>
<path style=" stroke:none;fill-rule:nonzero;fill:rgb(42.352941%,38.823529%,100%);fill-opacity:1;" d="M 63.742188 9.976562 L 39.230469 12.761719 C 37.609375 12.949219 36.6875 13.597656 37.175781 14.210938 C 37.664062 14.824219 39.375 15.175781 41 14.992188 L 62.449219 12.550781 L 62.898438 12.5 C 62.988281 11.625 63.617188 10.765625 64.730469 10 C 64.59375 9.976562 64.441406 9.960938 64.289062 9.957031 C 64.105469 9.949219 63.917969 9.957031 63.742188 9.976562 Z M 63.742188 9.976562 "/>
<path style=" stroke:none;fill-rule:nonzero;fill:rgb(18.431373%,18.039216%,25.490196%);fill-opacity:1;" d="M 40.574219 15.585938 C 39.910156 15.585938 39.316406 15.421875 39.105469 15.183594 L 37.574219 13.433594 C 37.304688 13.125 37.746094 12.792969 38.558594 12.691406 L 58.503906 10.191406 C 59.316406 10.089844 60.195312 10.253906 60.464844 10.5625 L 61.996094 12.3125 C 62.261719 12.613281 61.851562 12.9375 61.066406 13.046875 C 61.050781 13.046875 61.03125 13.050781 61.011719 13.054688 L 41.066406 15.554688 C 40.90625 15.574219 40.742188 15.585938 40.574219 15.585938 Z M 40.574219 15.585938 "/>
<path style=" stroke:none;fill-rule:nonzero;fill:rgb(24.705882%,23.921569%,33.72549%);fill-opacity:1;" d="M 77.933594 6.867188 C 69.5625 6.871094 62.707031 9.386719 62.449219 12.550781 C 62.445312 12.609375 62.441406 12.671875 62.441406 12.730469 C 62.441406 15.96875 69.378906 18.59375 77.933594 18.59375 C 86.488281 18.59375 93.425781 15.96875 93.425781 12.730469 C 93.425781 9.492188 86.488281 6.867188 77.933594 6.867188 Z M 77.933594 18.425781 C 69.625 18.421875 62.890625 15.875 62.882812 12.730469 C 62.882812 12.652344 62.886719 12.574219 62.898438 12.5 C 63.230469 9.386719 70.113281 6.953125 78.34375 7.039062 C 86.570312 7.121094 93.09375 9.695312 92.980469 12.808594 C 92.871094 15.921875 86.164062 18.425781 77.933594 18.425781 Z M 77.933594 18.425781 "/>
<path style=" stroke:none;fill-rule:nonzero;fill:rgb(90.196078%,90.196078%,90.196078%);fill-opacity:1;" d="M 90.992188 12.730469 C 90.992188 15.460938 85.144531 17.671875 77.933594 17.671875 C 70.722656 17.671875 64.875 15.460938 64.875 12.730469 C 64.875 12.574219 64.894531 12.421875 64.933594 12.269531 C 65.585938 9.640625 71.582031 7.671875 78.546875 7.796875 C 85.511719 7.917969 90.992188 10.09375 90.992188 12.730469 Z M 90.992188 12.730469 "/>
<path style=" stroke:none;fill-rule:nonzero;fill:rgb(42.352941%,38.823529%,100%);fill-opacity:1;" d="M 81.824219 13.058594 C 81.507812 12.902344 81.089844 12.777344 80.613281 12.695312 C 80.023438 12.601562 79.414062 12.527344 78.792969 12.46875 L 78.792969 11.125 C 79.75 11.179688 80.644531 11.335938 81.378906 11.570312 L 82.101562 10.988281 C 81.6875 10.851562 81.210938 10.738281 80.695312 10.660156 C 80.121094 10.574219 79.519531 10.515625 78.90625 10.488281 L 78.90625 9.804688 L 77.238281 9.804688 L 77.238281 10.492188 C 76.589844 10.519531 75.96875 10.601562 75.410156 10.726562 C 74.90625 10.839844 74.480469 10.996094 74.171875 11.183594 C 73.878906 11.367188 73.726562 11.582031 73.734375 11.796875 C 73.703125 12.027344 73.882812 12.257812 74.238281 12.449219 C 74.570312 12.613281 75.003906 12.742188 75.5 12.828125 C 76.101562 12.925781 76.71875 13 77.351562 13.058594 L 77.351562 14.347656 C 76.222656 14.316406 75.148438 14.152344 74.273438 13.882812 L 73.550781 14.464844 C 74.042969 14.621094 74.597656 14.738281 75.199219 14.820312 C 75.855469 14.910156 76.539062 14.960938 77.238281 14.980469 L 77.238281 15.65625 L 78.90625 15.65625 L 78.90625 14.96875 C 79.835938 14.929688 80.707031 14.777344 81.386719 14.539062 C 81.996094 14.316406 82.332031 14.011719 82.3125 13.691406 C 82.339844 13.464844 82.167969 13.242188 81.824219 13.058594 Z M 77.351562 12.328125 C 76.945312 12.28125 76.566406 12.203125 76.238281 12.101562 C 75.976562 12.011719 75.832031 11.886719 75.84375 11.75 C 75.832031 11.601562 75.976562 11.457031 76.246094 11.347656 C 76.546875 11.234375 76.933594 11.160156 77.351562 11.132812 Z M 79.839844 14.109375 C 79.558594 14.21875 79.191406 14.292969 78.792969 14.316406 L 78.792969 13.207031 C 79.175781 13.246094 79.53125 13.316406 79.839844 13.40625 C 80.082031 13.484375 80.214844 13.597656 80.203125 13.714844 C 80.21875 13.859375 80.089844 14 79.839844 14.109375 Z M 79.839844 14.109375 "/>
<path style=" stroke:none;fill-rule:nonzero;fill:rgb(18.431373%,18.039216%,25.490196%);fill-opacity:1;" d="M 41.285156 22.675781 C 40.582031 22.675781 39.96875 22.5 39.789062 22.242188 L 38.953125 21.046875 C 38.734375 20.734375 39.226562 20.414062 40.054688 20.328125 L 66.378906 17.695312 C 67.207031 17.617188 68.050781 17.800781 68.269531 18.113281 L 68.976562 19.128906 L 68.84375 19.132812 C 62.09375 19.328125 55.632812 20.257812 50.230469 21.800781 L 50.191406 21.808594 L 41.679688 22.660156 C 41.550781 22.671875 41.417969 22.675781 41.285156 22.675781 Z M 41.285156 22.675781 "/>
<path style=" stroke:none;fill-rule:nonzero;fill:rgb(24.705882%,23.921569%,33.72549%);fill-opacity:1;" d="M 36.925781 28.582031 C 33.839844 28.410156 30.886719 27.984375 28.269531 27.34375 C 26.972656 27.023438 25.769531 26.652344 24.6875 26.234375 C 23.621094 25.820312 22.597656 25.351562 22.070312 24.804688 C 21.558594 24.296875 21.585938 23.734375 22.140625 23.230469 C 22.691406 22.734375 23.738281 22.339844 25.058594 22.132812 C 26.382812 21.933594 27.984375 21.910156 29.273438 22.128906 C 29.890625 22.230469 30.421875 22.394531 30.816406 22.601562 C 31 22.695312 31.136719 22.800781 31.214844 22.914062 C 31.292969 23.015625 31.296875 23.125 31.234375 23.230469 C 31.082031 23.4375 30.699219 23.613281 30.179688 23.707031 C 29.617188 23.816406 29.003906 23.886719 28.375 23.917969 C 27.742188 23.949219 26.832031 23.980469 26.324219 23.785156 C 26.21875 23.75 26.136719 23.703125 26.082031 23.652344 C 26.042969 23.613281 26.03125 23.570312 26.042969 23.53125 C 26.035156 23.546875 26.074219 23.492188 26.074219 23.492188 C 26.066406 23.5 26.03125 23.523438 26.078125 23.488281 C 26.09375 23.480469 26.113281 23.46875 26.132812 23.460938 C 26.113281 23.46875 26.078125 23.480469 26.144531 23.457031 C 26.199219 23.433594 26.269531 23.417969 26.34375 23.410156 C 26.375 23.40625 26.40625 23.40625 26.4375 23.402344 C 26.515625 23.394531 26.359375 23.402344 26.441406 23.402344 C 26.472656 23.402344 26.503906 23.402344 26.53125 23.402344 C 26.609375 23.398438 26.457031 23.390625 26.53125 23.398438 C 26.558594 23.402344 26.589844 23.40625 26.617188 23.410156 C 26.679688 23.414062 26.574219 23.390625 26.617188 23.410156 C 26.664062 23.429688 26.5625 23.386719 26.621094 23.410156 C 26.648438 23.421875 26.675781 23.429688 26.699219 23.441406 C 26.902344 23.519531 27.230469 23.519531 27.433594 23.441406 C 27.628906 23.363281 27.628906 23.242188 27.433594 23.164062 C 26.921875 22.925781 25.910156 22.984375 25.394531 23.1875 C 24.734375 23.445312 24.996094 23.855469 25.636719 24.082031 C 26.363281 24.335938 27.390625 24.355469 28.328125 24.3125 C 29.117188 24.28125 29.886719 24.199219 30.601562 24.070312 C 31.308594 23.9375 31.863281 23.710938 32.15625 23.433594 C 32.421875 23.132812 32.335938 22.804688 31.921875 22.53125 C 31.09375 21.945312 29.386719 21.644531 27.695312 21.589844 C 25.941406 21.539062 24.203125 21.753906 22.867188 22.191406 C 21.59375 22.625 20.8125 23.226562 20.679688 23.871094 C 20.53125 24.542969 21.21875 25.191406 22.21875 25.734375 C 23.269531 26.28125 24.519531 26.769531 25.933594 27.1875 C 28.699219 28.023438 31.945312 28.601562 35.410156 28.878906 C 35.820312 28.910156 36.234375 28.9375 36.652344 28.960938 C 36.925781 28.984375 37.207031 28.925781 37.289062 28.824219 C 37.363281 28.71875 37.203125 28.609375 36.925781 28.582031 Z M 36.925781 28.582031 "/>
<path style=" stroke:none;fill-rule:nonzero;fill:rgb(80%,80%,80%);fill-opacity:1;" d="M 86.367188 20.046875 C 81.84375 20.023438 77.332031 20.066406 72.835938 20.179688 C 71.300781 20.21875 69.972656 20.421875 69.972656 20.769531 C 69.972656 21.058594 71.289062 21.394531 72.835938 21.355469 C 77.332031 21.246094 81.839844 21.203125 86.367188 21.226562 C 90.058594 21.246094 90.054688 20.070312 86.367188 20.046875 Z M 86.367188 20.046875 "/>
<path style=" stroke:none;fill-rule:nonzero;fill:rgb(24.705882%,23.921569%,33.72549%);fill-opacity:1;" d="M 79.679688 21.167969 C 79.191406 21.167969 67.707031 21.160156 67.707031 20.5625 C 67.707031 19.960938 79.191406 19.953125 79.679688 19.953125 C 80.167969 19.953125 91.65625 19.960938 91.65625 20.5625 C 91.65625 21.160156 80.167969 21.167969 79.679688 21.167969 Z M 68.15625 20.5625 C 68.46875 20.742188 72.691406 21 79.679688 21 C 86.667969 21 90.890625 20.742188 91.207031 20.5625 C 90.890625 20.378906 86.667969 20.121094 79.679688 20.121094 C 72.691406 20.121094 68.46875 20.378906 68.15625 20.5625 Z M 68.15625 20.5625 "/>
<path style=" stroke:none;fill-rule:nonzero;fill:rgb(24.705882%,23.921569%,33.72549%);fill-opacity:1;" d="M 116.121094 36.953125 C 118.664062 36.925781 121.828125 36.890625 124.265625 36.21875 C 125.738281 35.792969 126.636719 35.148438 126.726562 34.449219 C 126.777344 33.917969 126.269531 33.453125 125.296875 33.140625 C 124.023438 32.734375 122.164062 32.640625 120.160156 32.863281 L 122.238281 27.121094 L 120.714844 27.042969 L 118.273438 33.792969 L 119.546875 33.570312 C 121.019531 33.316406 123.046875 33.183594 124.304688 33.585938 C 124.929688 33.800781 125.257812 34.113281 125.191406 34.429688 C 125.117188 34.949219 124.445312 35.429688 123.359375 35.746094 C 121.460938 36.273438 118.941406 36.339844 116.078125 36.371094 Z M 116.121094 36.953125 "/>
<path style=" stroke:none;fill-rule:nonzero;fill:rgb(24.705882%,23.921569%,33.72549%);fill-opacity:1;" d="M 103.625 27.617188 L 111.910156 27.617188 L 111.910156 28.199219 L 103.625 28.199219 Z M 103.625 27.617188 "/>
<path style=" stroke:none;fill-rule:nonzero;fill:rgb(18.431373%,18.039216%,25.490196%);fill-opacity:1;" d="M 45.035156 25.355469 C 44.273438 25.355469 43.625 25.144531 43.507812 24.859375 L 43.003906 23.636719 C 42.871094 23.316406 43.449219 23.019531 44.292969 22.96875 L 71.191406 21.375 C 72.035156 21.324219 72.828125 21.542969 72.960938 21.863281 L 73.464844 23.082031 C 73.597656 23.402344 73.019531 23.703125 72.175781 23.753906 L 45.277344 25.347656 C 45.199219 25.351562 45.117188 25.355469 45.035156 25.355469 Z M 45.035156 25.355469 "/>
<path style=" stroke:none;fill-rule:nonzero;fill:rgb(42.352941%,38.823529%,100%);fill-opacity:1;" d="M 45.191406 6.773438 C 45.191406 9.128906 40.136719 11.042969 33.902344 11.042969 C 27.671875 11.042969 22.617188 9.128906 22.617188 6.773438 C 22.617188 4.414062 27.671875 2.5 33.902344 2.5 C 40.136719 2.5 45.191406 4.414062 45.191406 6.773438 Z M 45.191406 6.773438 "/>
<path style=" stroke:none;fill-rule:nonzero;fill:rgb(18.431373%,18.039216%,25.490196%);fill-opacity:1;" d="M 40.296875 7.875 C 40.65625 7.828125 40.984375 7.753906 41.261719 7.652344 C 41.632812 7.507812 41.8125 7.308594 41.761719 7.109375 C 41.730469 6.96875 41.523438 6.839844 41.203125 6.761719 C 40.796875 6.667969 40.257812 6.667969 39.710938 6.765625 L 39.648438 5.097656 L 39.207031 5.101562 L 39.28125 7.058594 L 39.617188 6.976562 C 40.007812 6.878906 40.570312 6.808594 40.972656 6.902344 C 41.175781 6.953125 41.304688 7.039062 41.320312 7.128906 C 41.359375 7.277344 41.222656 7.425781 40.949219 7.535156 C 40.46875 7.714844 39.757812 7.773438 38.949219 7.828125 L 39.027344 7.996094 C 39.457031 7.96875 39.882812 7.929688 40.296875 7.875 Z M 40.296875 7.875 "/>
<path style=" stroke:none;fill-rule:nonzero;fill:rgb(18.431373%,18.039216%,25.490196%);fill-opacity:1;" d="M 41.847656 5.117188 L 44.207031 4.980469 L 44.273438 5.144531 L 41.914062 5.28125 Z M 41.847656 5.117188 "/>
<path style=" stroke:none;fill-rule:nonzero;fill:rgb(18.431373%,18.039216%,25.490196%);fill-opacity:1;" d="M 34.410156 5.542969 L 36.765625 5.40625 L 36.832031 5.574219 L 34.476562 5.707031 Z M 34.410156 5.542969 "/>
<path style=" stroke:none;fill-rule:nonzero;fill:rgb(18.431373%,18.039216%,25.490196%);fill-opacity:1;" d="M 41.363281 25.28125 C 40.53125 25.28125 39.789062 25.085938 39.496094 24.789062 L 31.714844 16.902344 C 29.734375 14.890625 32.433594 12.648438 37.753906 11.894531 L 44.082031 11 C 44.574219 10.929688 45.125 10.9375 45.601562 11.019531 C 46.082031 11.101562 46.457031 11.25 46.636719 11.4375 L 61.054688 21.738281 C 61.242188 21.925781 61.226562 22.132812 61.007812 22.316406 C 60.789062 22.5 60.386719 22.640625 59.890625 22.710938 L 42.058594 25.230469 C 41.835938 25.265625 41.601562 25.28125 41.363281 25.28125 Z M 41.363281 25.28125 "/>
<path style=" stroke:none;fill-rule:nonzero;fill:rgb(90.196078%,90.196078%,90.196078%);fill-opacity:1;" d="M 42.160156 11.273438 L 56.464844 18.511719 L 46.785156 11.347656 C 46.449219 10.996094 45.425781 10.8125 44.496094 10.941406 Z M 42.160156 11.273438 "/>
<path style=" stroke:none;fill-rule:nonzero;fill:rgb(42.352941%,38.823529%,100%);fill-opacity:1;" d="M 64.808594 16.769531 L 39.269531 16.144531 C 37.578125 16.105469 36.292969 15.550781 36.402344 14.910156 C 36.511719 14.269531 37.972656 13.785156 39.664062 13.824219 L 65.203125 14.449219 C 65.996094 14.46875 66.597656 14.726562 66.546875 15.027344 L 66.335938 16.261719 C 66.285156 16.558594 65.601562 16.789062 64.808594 16.769531 Z M 64.808594 16.769531 "/>
<path style=" stroke:none;fill-rule:nonzero;fill:rgb(18.431373%,18.039216%,25.490196%);fill-opacity:1;" d="M 57.984375 17.167969 C 57.953125 17.167969 57.917969 17.167969 57.882812 17.167969 L 36.910156 16.65625 C 36.058594 16.632812 35.410156 16.355469 35.464844 16.03125 L 35.824219 13.925781 C 35.878906 13.601562 36.617188 13.355469 37.46875 13.378906 L 58.441406 13.890625 C 59.292969 13.910156 59.941406 14.1875 59.886719 14.511719 L 59.527344 16.621094 C 59.488281 16.851562 59.09375 17.050781 58.523438 17.132812 C 58.351562 17.15625 58.167969 17.167969 57.984375 17.167969 Z M 57.984375 17.167969 "/>
<path style=" stroke:none;fill-rule:nonzero;fill:rgb(18.431373%,18.039216%,25.490196%);fill-opacity:1;" d="M 33.773438 3.929688 C 35.261719 3.449219 37.300781 3.878906 39 3.804688 C 40.632812 3.730469 41.917969 3.179688 42.246094 2.59375 C 42.628906 1.90625 41.6875 1.21875 40.304688 0.792969 C 38.785156 0.324219 36.773438 0.191406 34.867188 0.277344 C 32.679688 0.375 30.679688 0.761719 28.886719 1.226562 C 27.15625 1.664062 25.5625 2.175781 24.140625 2.75 C 22.867188 3.28125 21.789062 3.914062 21.445312 4.632812 C 21.132812 5.28125 21.371094 6.003906 22.386719 6.554688 C 22.925781 6.835938 23.648438 7.0625 24.484375 7.207031 C 25.355469 7.371094 26.285156 7.484375 27.128906 7.667969 C 28.40625 7.945312 29.648438 8.519531 29.246094 9.117188 C 29.160156 9.246094 28.992188 9.367188 28.753906 9.46875 C 28.46875 9.585938 27.953125 9.429688 28.238281 9.308594 C 28.742188 9.097656 28.722656 8.816406 28.453125 8.5625 C 28.136719 8.277344 27.570312 8.042969 26.855469 7.898438 C 25.96875 7.707031 24.996094 7.585938 24.089844 7.414062 C 23.222656 7.253906 22.46875 7.019531 21.894531 6.726562 C 20.8125 6.15625 20.488281 5.414062 20.734375 4.726562 C 21 3.984375 22.007812 3.308594 23.269531 2.742188 C 24.648438 2.128906 26.335938 1.609375 28.0625 1.140625 C 29.914062 0.636719 31.960938 0.210938 34.226562 0.0585938 C 36.191406 -0.0742188 38.316406 0.0078125 40.035156 0.414062 C 41.636719 0.789062 42.867188 1.441406 42.988281 2.167969 C 43.078125 2.839844 42.199219 3.480469 40.691406 3.835938 C 39.933594 4.007812 39.050781 4.085938 38.167969 4.058594 C 37.222656 4.035156 36.28125 3.925781 35.332031 3.957031 C 34.902344 3.964844 34.492188 4.027344 34.164062 4.136719 C 33.839844 4.242188 33.453125 4.035156 33.773438 3.929688 Z M 33.773438 3.929688 "/>
<path style=" stroke:none;fill-rule:nonzero;fill:rgb(24.705882%,23.921569%,33.72549%);fill-opacity:1;" d="M 163.664062 50.015625 L 0.261719 50.015625 C 0.117188 50.015625 0 49.96875 0 49.914062 C 0 49.859375 0.117188 49.816406 0.261719 49.816406 L 163.664062 49.816406 C 163.808594 49.816406 163.929688 49.859375 163.929688 49.914062 C 163.929688 49.96875 163.808594 50.015625 163.664062 50.015625 Z M 163.664062 50.015625 "/>
</g>
</svg>
